999
dxflib 3.17.0.0
  0
SECTION
  2
HEADER
  9
$ACADVER
  1
AC1015
  9
$HANDSEED
  5
FFFF
  9
$DIMADEC
 70
0
  9
$DIMASZ
 40
2.5
  9
$DIMAUNIT
 70
0
  9
$DIMAZIN
 70
2
  9
$DIMDEC
 70
4
  9
$DIMDLI
 40
5.0
  9
$DIMDSEP
 70
46
  9
$DIMEXE
 40
1.25
  9
$DIMEXO
 40
0.625
  9
$DIMGAP
 40
0.625
  9
$DIMLUNIT
 70
2
  9
$DIMSCALE
 40
1.0
  9
$DIMTSZ
 40
0.0
  9
$DIMTXT
 40
2.5
  9
$DIMZIN
 70
8
  9
$DWGCODEPAGE
  3
ANSI_1252
  9
$INSUNITS
 70
4
  9
$LTSCALE
 40
1.0
  9
$MAXACTVP
 70
64
  9
$MEASUREMENT
 70
1
  9
$MIRRTEXT
 70
0
  9
$PDMODE
 70
0
  9
$PDSIZE
 40
0.0
  0
ENDSEC
  0
SECTION
  2
TABLES
  0
TABLE
  2
VPORT
  5
8
100
AcDbSymbolTable
 70
1
  0
VPORT
  5
30
100
AcDbSymbolTableRecord
100
AcDbViewportTableRecord
  2
*Active
 70
0
 10
0.0
 20
0.0
 11
1.0
 21
1.0
 12
286.3055555555554861
 22
148.5
 13
0.0
 23
0.0
 14
10.0
 24
10.0
 15
10.0
 25
10.0
 16
0.0
 26
0.0
 36
1.0
 17
0.0
 27
0.0
 37
0.0
 40
297.0
 41
1.92798353909465
 42
50.0
 43
0.0
 44
0.0
 50
0.0
 51
0.0
 71
0
 72
100
 73
1
 74
3
 75
1
 76
1
 77
0
 78
0
281
0
 65
1
110
0.0
120
0.0
130
0.0
111
1.0
121
0.0
131
0.0
112
0.0
122
1.0
132
0.0
 79
0
146
0.0
  0
ENDTAB
  0
TABLE
  2
LTYPE
  5
5
100
AcDbSymbolTable
 70
41
  0
LTYPE
  5
16
100
AcDbSymbolTableRecord
100
AcDbLinetypeTableRecord
  2
Continuous
 70
0
  3
Solid line
 72
65
 73
0
 40
0.0
  0
LTYPE
  5
31
100
AcDbSymbolTableRecord
100
AcDbLinetypeTableRecord
  2
ACAD_ISO14W100
 70
0
  3
ISO dash triple-dot __ . . . __ . . . __ . . . _
 72
65
 73
8
 40
24.0
 49
12.0
 74
0
 49
-3.0
 74
0
 49
0.0
 74
0
 49
-3.0
 74
0
 49
0.0
 74
0
 49
-3.0
 74
0
 49
0.0
 74
0
 49
-3.0
 74
0
  0
LTYPE
  5
32
100
AcDbSymbolTableRecord
100
AcDbLinetypeTableRecord
  2
BORDER
 70
0
  3
Border __ __ . __ __ . __ __ . __ __ . __ __ .
 72
65
 73
6
 40
44.4499999999999957
 49
12.6999999999999993
 74
0
 49
-6.3499999999999996
 74
0
 49
12.6999999999999993
 74
0
 49
-6.3499999999999996
 74
0
 49
0.0
 74
0
 49
-6.3499999999999996
 74
0
  0
LTYPE
  5
33
100
AcDbSymbolTableRecord
100
AcDbLinetypeTableRecord
  2
CENTERX2
 70
0
  3
Center (2x) ________  __  ________  __  _____
 72
65
 73
4
 40
101.6000000000000085
 49
63.5
 74
0
 49
-12.6999999999999993
 74
0
 49
12.6999999999999993
 74
0
 49
-12.6999999999999993
 74
0
  0
LTYPE
  5
34
100
AcDbSymbolTableRecord
100
AcDbLinetypeTableRecord
  2
ACAD_ISO09W100
 70
0
  3
ISO long-dash double-short-dash ____ __ __ ____
 72
65
 73
6
 40
45.0
 49
24.0
 74
0
 49
-3.0
 74
0
 49
6.0
 74
0
 49
-3.0
 74
0
 49
6.0
 74
0
 49
-3.0
 74
0
  0
LTYPE
  5
35
100
AcDbSymbolTableRecord
100
AcDbLinetypeTableRecord
  2
ACAD_ISO02W100
 70
0
  3
ISO dash __ __ __ __ __ __ __ __ __ __ __ __ __
 72
65
 73
2
 40
15.0
 49
12.0
 74
0
 49
-3.0
 74
0
  0
LTYPE
  5
36
100
AcDbSymbolTableRecord
100
AcDbLinetypeTableRecord
  2
HIDDENX2
 70
0
  3
Hidden (2x) ____ ____ ____ ____ ____ ____ ____ 
 72
65
 73
2
 40
19.0499999999999972
 49
12.6999999999999993
 74
0
 49
-6.3499999999999996
 74
0
  0
LTYPE
  5
37
100
AcDbSymbolTableRecord
100
AcDbLinetypeTableRecord
  2
ACAD_ISO03W100
 70
0
  3
ISO dash space __    __    __    __    __    __
 72
65
 73
2
 40
30.0
 49
12.0
 74
0
 49
-18.0
 74
0
  0
LTYPE
  5
38
100
AcDbSymbolTableRecord
100
AcDbLinetypeTableRecord
  2
CENTER2
 70
0
  3
Center (.5x) ___ _ ___ _ ___ _ ___ _ ___ _ ___
 72
65
 73
4
 40
28.5750000000000028
 49
19.0500000000000007
 74
0
 49
-3.1749999999999998
 74
0
 49
3.1749999999999998
 74
0
 49
-3.1749999999999998
 74
0
  0
LTYPE
  5
39
100
AcDbSymbolTableRecord
100
AcDbLinetypeTableRecord
  2
ACAD_ISO06W100
 70
0
  3
ISO long-dash triple-dot ____ ... ____ ... ____
 72
65
 73
8
 40
36.0
 49
24.0
 74
0
 49
-3.0
 74
0
 49
0.0
 74
0
 49
-3.0
 74
0
 49
0.0
 74
0
 49
-3.0
 74
0
 49
0.0
 74
0
 49
-3.0
 74
0
  0
LTYPE
  5
3A
100
AcDbSymbolTableRecord
100
AcDbLinetypeTableRecord
  2
ACAD_ISO12W100
 70
0
  3
ISO dash double-dot __ . . __ . . __ . . __ . . 
 72
65
 73
6
 40
21.0
 49
12.0
 74
0
 49
-3.0
 74
0
 49
0.0
 74
0
 49
-3.0
 74
0
 49
0.0
 74
0
 49
-3.0
 74
0
  0
LTYPE
  5
3B
100
AcDbSymbolTableRecord
100
AcDbLinetypeTableRecord
  2
ACAD_ISO13W100
 70
0
  3
ISO double-dash double-dot __ __ . . __ __ . . _
 72
65
 73
8
 40
36.0
 49
12.0
 74
0
 49
-3.0
 74
0
 49
12.0
 74
0
 49
-3.0
 74
0
 49
0.0
 74
0
 49
-3.0
 74
0
 49
0.0
 74
0
 49
-3.0
 74
0
  0
LTYPE
  5
3C
100
AcDbSymbolTableRecord
100
AcDbLinetypeTableRecord
  2
PHANTOMX2
 70
0
  3
Phantom (2x) ____________    ____    ____   _
 72
65
 73
6
 40
127.0000000000000142
 49
63.5
 74
0
 49
-12.6999999999999993
 74
0
 49
12.6999999999999993
 74
0
 49
-12.6999999999999993
 74
0
 49
12.6999999999999993
 74
0
 49
-12.6999999999999993
 74
0
  0
LTYPE
  5
3D
100
AcDbSymbolTableRecord
100
AcDbLinetypeTableRecord
  2
ACAD_ISO10W100
 70
0
  3
ISO dash dot __ . __ . __ . __ . __ . __ . __ . 
 72
65
 73
4
 40
18.0
 49
12.0
 74
0
 49
-3.0
 74
0
 49
0.0
 74
0
 49
-3.0
 74
0
  0
LTYPE
  5
3E
100
AcDbSymbolTableRecord
100
AcDbLinetypeTableRecord
  2
HIDDEN
 70
0
  3
Hidden __ __ __ __ __ __ __ __ __ __ __ __ __ __
 72
65
 73
2
 40
9.5249999999999986
 49
6.3499999999999996
 74
0
 49
-3.1749999999999998
 74
0
  0
LTYPE
  5
3F
100
AcDbSymbolTableRecord
100
AcDbLinetypeTableRecord
  2
DIVIDE
 70
0
  3
Divide ____ . . ____ . . ____ . . ____ . . ____
 72
65
 73
6
 40
31.75
 49
12.6999999999999993
 74
0
 49
-6.3499999999999996
 74
0
 49
0.0
 74
0
 49
-6.3499999999999996
 74
0
 49
0.0
 74
0
 49
-6.3499999999999996
 74
0
  0
LTYPE
  5
15
100
AcDbSymbolTableRecord
100
AcDbLinetypeTableRecord
  2
BYLAYER
 70
0
  3

 72
65
 73
0
 40
0.0
  0
LTYPE
  5
40
100
AcDbSymbolTableRecord
100
AcDbLinetypeTableRecord
  2
ACAD_ISO15W100
 70
0
  3
ISO double-dash triple-dot __ __ . . . __ __ . .
 72
65
 73
10
 40
39.0
 49
12.0
 74
0
 49
-3.0
 74
0
 49
12.0
 74
0
 49
-3.0
 74
0
 49
0.0
 74
0
 49
-3.0
 74
0
 49
0.0
 74
0
 49
-3.0
 74
0
 49
0.0
 74
0
 49
-3.0
 74
0
  0
LTYPE
  5
41
100
AcDbSymbolTableRecord
100
AcDbLinetypeTableRecord
  2
BORDERX2
 70
0
  3
Border (2x) ____  ____  .  ____  ____  .  ___
 72
65
 73
6
 40
88.8999999999999915
 49
25.3999999999999986
 74
0
 49
-12.6999999999999993
 74
0
 49
25.3999999999999986
 74
0
 49
-12.6999999999999993
 74
0
 49
0.0
 74
0
 49
-12.6999999999999993
 74
0
  0
LTYPE
  5
42
100
AcDbSymbolTableRecord
100
AcDbLinetypeTableRecord
  2
DASHED2
 70
0
  3
Dashed (.5x) _ _ _ _ _ _ _ _ _ _ _ _ _ _ _ _ _ 
 72
65
 73
2
 40
9.5249999999999986
 49
6.3499999999999996
 74
0
 49
-3.1749999999999998
 74
0
  0
LTYPE
  5
43
100
AcDbSymbolTableRecord
100
AcDbLinetypeTableRecord
  2
DASHEDX2
 70
0
  3
Dashed (2x) ____  ____  ____  ____  ____  ___
 72
65
 73
2
 40
38.0999999999999943
 49
25.3999999999999986
 74
0
 49
-12.6999999999999993
 74
0
  0
LTYPE
  5
44
100
AcDbSymbolTableRecord
100
AcDbLinetypeTableRecord
  2
DASHDOT2
 70
0
  3
Dash dot (.5x) _._._._._._._._._._._._._._._.
 72
65
 73
4
 40
12.6999999999999993
 49
6.3499999999999996
 74
0
 49
-3.1749999999999998
 74
0
 49
0.0
 74
0
 49
-3.1749999999999998
 74
0
  0
LTYPE
  5
45
100
AcDbSymbolTableRecord
100
AcDbLinetypeTableRecord
  2
BORDER2
 70
0
  3
Border (.5x) __.__.__.__.__.__.__.__.__.__.__.
 72
65
 73
6
 40
22.2249999999999979
 49
6.3499999999999996
 74
0
 49
-3.1749999999999998
 74
0
 49
6.3499999999999996
 74
0
 49
-3.1749999999999998
 74
0
 49
0.0
 74
0
 49
-3.1749999999999998
 74
0
  0
LTYPE
  5
46
100
AcDbSymbolTableRecord
100
AcDbLinetypeTableRecord
  2
PHANTOM2
 70
0
  3
Phantom (.5x) ___ _ _ ___ _ _ ___ _ _ ___ _ _
 72
65
 73
6
 40
31.7500000000000036
 49
15.875
 74
0
 49
-3.1749999999999998
 74
0
 49
3.1749999999999998
 74
0
 49
-3.1749999999999998
 74
0
 49
3.1749999999999998
 74
0
 49
-3.1749999999999998
 74
0
  0
LTYPE
  5
47
100
AcDbSymbolTableRecord
100
AcDbLinetypeTableRecord
  2
DOT2
 70
0
  3
Dot (.5x) ........................................
 72
65
 73
2
 40
3.1749999999999998
 49
0.0
 74
0
 49
-3.1749999999999998
 74
0
  0
LTYPE
  5
48
100
AcDbSymbolTableRecord
100
AcDbLinetypeTableRecord
  2
DASHDOT
 70
0
  3
Dash dot __ . __ . __ . __ . __ . __ . __ . __
 72
65
 73
4
 40
25.3999999999999986
 49
12.6999999999999993
 74
0
 49
-6.3499999999999996
 74
0
 49
0.0
 74
0
 49
-6.3499999999999996
 74
0
  0
LTYPE
  5
49
100
AcDbSymbolTableRecord
100
AcDbLinetypeTableRecord
  2
DOTX2
 70
0
  3
Dot (2x) .  .  .  .  .  .  .  .  .  .  .  .  .  .
 72
65
 73
2
 40
12.6999999999999993
 49
0.0
 74
0
 49
-12.6999999999999993
 74
0
  0
LTYPE
  5
4A
100
AcDbSymbolTableRecord
100
AcDbLinetypeTableRecord
  2
HIDDEN2
 70
0
  3
Hidden (.5x) _ _ _ _ _ _ _ _ _ _ _ _ _ _ _ _ _ 
 72
65
 73
2
 40
4.7624999999999993
 49
3.1749999999999998
 74
0
 49
-1.5874999999999999
 74
0
  0
LTYPE
  5
14
100
AcDbSymbolTableRecord
100
AcDbLinetypeTableRecord
  2
BYBLOCK
 70
0
  3

 72
65
 73
0
 40
0.0
  0
LTYPE
  5
4B
100
AcDbSymbolTableRecord
100
AcDbLinetypeTableRecord
  2
ACAD_ISO08W100
 70
0
  3
ISO long-dash short-dash ____ __ ____ __ ____ _
 72
65
 73
4
 40
36.0
 49
24.0
 74
0
 49
-3.0
 74
0
 49
6.0
 74
0
 49
-3.0
 74
0
  0
LTYPE
  5
4C
100
AcDbSymbolTableRecord
100
AcDbLinetypeTableRecord
  2
ACAD_ISO07W100
 70
0
  3
ISO dot . . . . . . . . . . . . . . . . . . . . 
 72
65
 73
2
 40
3.0
 49
0.0
 74
0
 49
-3.0
 74
0
  0
LTYPE
  5
4D
100
AcDbSymbolTableRecord
100
AcDbLinetypeTableRecord
  2
CENTER
 70
0
  3
Center ____ _ ____ _ ____ _ ____ _ ____ _ ____
 72
65
 73
4
 40
50.8000000000000043
 49
31.75
 74
0
 49
-6.3499999999999996
 74
0
 49
6.3499999999999996
 74
0
 49
-6.3499999999999996
 74
0
  0
LTYPE
  5
4E
100
AcDbSymbolTableRecord
100
AcDbLinetypeTableRecord
  2
DASHED
 70
0
  3
Dashed __ __ __ __ __ __ __ __ __ __ __ __ __ _
 72
65
 73
2
 40
19.0499999999999972
 49
12.6999999999999993
 74
0
 49
-6.3499999999999996
 74
0
  0
LTYPE
  5
4F
100
AcDbSymbolTableRecord
100
AcDbLinetypeTableRecord
  2
PHANTOM
 70
0
  3
Phantom ______  __  __  ______  __  __  ______ 
 72
65
 73
6
 40
63.5000000000000071
 49
31.75
 74
0
 49
-6.3499999999999996
 74
0
 49
6.3499999999999996
 74
0
 49
-6.3499999999999996
 74
0
 49
6.3499999999999996
 74
0
 49
-6.3499999999999996
 74
0
  0
LTYPE
  5
50
100
AcDbSymbolTableRecord
100
AcDbLinetypeTableRecord
  2
DASHDOTX2
 70
0
  3
Dash dot (2x) ____  .  ____  .  ____  .  ___
 72
65
 73
4
 40
50.7999999999999972
 49
25.3999999999999986
 74
0
 49
-12.6999999999999993
 74
0
 49
0.0
 74
0
 49
-12.6999999999999993
 74
0
  0
LTYPE
  5
51
100
AcDbSymbolTableRecord
100
AcDbLinetypeTableRecord
  2
DOT
 70
0
  3
Dot . . . . . . . . . . . . . . . . . . . . . . . .
 72
65
 73
2
 40
6.3499999999999996
 49
0.0
 74
0
 49
-6.3499999999999996
 74
0
  0
LTYPE
  5
52
100
AcDbSymbolTableRecord
100
AcDbLinetypeTableRecord
  2
DIVIDEX2
 70
0
  3
Divide (2x) ________  .  .  ________  .  .  _
 72
65
 73
6
 40
63.5
 49
25.3999999999999986
 74
0
 49
-12.6999999999999993
 74
0
 49
0.0
 74
0
 49
-12.6999999999999993
 74
0
 49
0.0
 74
0
 49
-12.6999999999999993
 74
0
  0
LTYPE
  5
53
100
AcDbSymbolTableRecord
100
AcDbLinetypeTableRecord
  2
ACAD_ISO04W100
 70
0
  3
ISO long-dash dot ____ . ____ . ____ . ____ . _
 72
65
 73
4
 40
30.0
 49
24.0
 74
0
 49
-3.0
 74
0
 49
0.0
 74
0
 49
-3.0
 74
0
  0
LTYPE
  5
54
100
AcDbSymbolTableRecord
100
AcDbLinetypeTableRecord
  2
ACAD_ISO05W100
 70
0
  3
ISO long-dash double-dot ____ .. ____ .. ____ . 
 72
65
 73
6
 40
33.0
 49
24.0
 74
0
 49
-3.0
 74
0
 49
0.0
 74
0
 49
-3.0
 74
0
 49
0.0
 74
0
 49
-3.0
 74
0
  0
LTYPE
  5
55
100
AcDbSymbolTableRecord
100
AcDbLinetypeTableRecord
  2
ACAD_ISO11W100
 70
0
  3
ISO double-dash dot __ __ . __ __ . __ __ . __ _
 72
65
 73
6
 40
33.0
 49
12.0
 74
0
 49
-3.0
 74
0
 49
12.0
 74
0
 49
-3.0
 74
0
 49
0.0
 74
0
 49
-3.0
 74
0
  0
LTYPE
  5
56
100
AcDbSymbolTableRecord
100
AcDbLinetypeTableRecord
  2
DIVIDE2
 70
0
  3
Divide (.5x) __..__..__..__..__..__..__..__.._
 72
65
 73
6
 40
15.875
 49
6.3499999999999996
 74
0
 49
-3.1749999999999998
 74
0
 49
0.0
 74
0
 49
-3.1749999999999998
 74
0
 49
0.0
 74
0
 49
-3.1749999999999998
 74
0
  0
ENDTAB
  0
TABLE
  2
LAYER
  5
2
100
AcDbSymbolTable
 70
2
  0
LAYER
  5
57
100
AcDbSymbolTableRecord
100
AcDbLayerTableRecord
  2
s001-#def-active-grp
 70
0
 62
7
420
16777215
  6
Continuous
370
-3
390
F
  0
LAYER
  5
10
100
AcDbSymbolTableRecord
100
AcDbLayerTableRecord
  2
0
 70
0
 62
7
420
16777215
  6
Continuous
370
25
390
F
  0
ENDTAB
  0
TABLE
  2
STYLE
  5
3
100
AcDbSymbolTable
 70
1
  0
STYLE
  5
58
100
AcDbSymbolTableRecord
100
AcDbTextStyleTableRecord
  2
Standard
 70
0
 40
0.0
 41
1.0
 50
0.0
 71
0
 42
2.5
  3

  4

1001
ACAD
1000
txt
1071
0
  0
ENDTAB
  0
TABLE
  2
VIEW
  5
6
100
AcDbSymbolTable
 70
0
  0
ENDTAB
  0
TABLE
  2
UCS
  5
7
100
AcDbSymbolTable
 70
0
  0
ENDTAB
  0
TABLE
  2
APPID
  5
9
100
AcDbSymbolTable
 70
1
  0
APPID
  5
12
100
AcDbSymbolTableRecord
100
AcDbRegAppTableRecord
  2
ACAD
 70
0
  0
APPID
  5
59
100
AcDbSymbolTableRecord
100
AcDbRegAppTableRecord
  2
QCAD
 70
0
  0
ENDTAB
  0
TABLE
  2
DIMSTYLE
  5
A
100
AcDbSymbolTable
 70
1
100
AcDbDimStyleTable
 71
0
  0
DIMSTYLE
105
27
100
AcDbSymbolTableRecord
100
AcDbDimStyleTableRecord
  2
Standard
 41
2.5
 42
0.625
 43
3.75
 44
1.25
 70
0
 73
0
 74
0
 77
1
 78
8
140
2.5
141
2.5
143
0.03937007874016
147
0.625
171
3
172
1
271
2
272
2
274
3
278
44
283
0
284
8
340
58
  0
ENDTAB
  0
TABLE
  2
BLOCK_RECORD
  5
1
100
AcDbSymbolTable
 70
1
  0
BLOCK_RECORD
  5
1F
100
AcDbSymbolTableRecord
100
AcDbBlockTableRecord
  2
*Model_Space
340
22
  0
BLOCK_RECORD
  5
1B
100
AcDbSymbolTableRecord
100
AcDbBlockTableRecord
  2
*Paper_Space
340
1E
  0
BLOCK_RECORD
  5
23
100
AcDbSymbolTableRecord
100
AcDbBlockTableRecord
  2
*Paper_Space0
340
26
  0
BLOCK_RECORD
  5
5A
100
AcDbSymbolTableRecord
100
AcDbBlockTableRecord
  2
top
340
0
  0
BLOCK_RECORD
  5
5B
100
AcDbSymbolTableRecord
100
AcDbBlockTableRecord
  2
bottom
340
0
  0
ENDTAB
  0
ENDSEC
  0
SECTION
  2
BLOCKS
  0
BLOCK
  5
20
100
AcDbEntity
  8
0
100
AcDbBlockBegin
  2
*Model_Space
 70
0
 10
0.0
 20
0.0
 30
0.0
  3
*Model_Space
  1

  0
ENDBLK
  5
21
100
AcDbEntity
  8
0
100
AcDbBlockEnd
  0
BLOCK
  5
1C
100
AcDbEntity
 67
1
  8
0
100
AcDbBlockBegin
  2
*Paper_Space
 70
0
 10
0.0
 20
0.0
 30
0.0
  3
*Paper_Space
  1

  0
ENDBLK
  5
1D
100
AcDbEntity
 67
1
  8
0
100
AcDbBlockEnd
  0
BLOCK
  5
24
100
AcDbEntity
  8
0
100
AcDbBlockBegin
  2
*Paper_Space0
 70
0
 10
0.0
 20
0.0
 30
0.0
  3
*Paper_Space0
  1

  0
ENDBLK
  5
25
100
AcDbEntity
  8
0
100
AcDbBlockEnd
  0
BLOCK
  5
5C
100
AcDbEntity
  8
0
100
AcDbBlockBegin
  2
top
 70
0
 10
0.0
 20
0.0
 30
0.0
  3
top
  1

  0
LINE
  5
5D
100
AcDbEntity
  8
s001-#def-active-grp
 62
256
370
0
 48
1.0
  6
Continuous
100
AcDbLine
 10
-142.9978213352508476
 20
214.3589838486224721
 30
0.0
 11
-14.6188021535170378
 21
-8.0
 31
0.0
  0
LINE
  5
5E
100
AcDbEntity
  8
s001-#def-active-grp
 62
256
370
0
 48
1.0
  6
Continuous
100
AcDbLine
 10
-5.9585481156726132
 20
-13.0
 30
0.0
 11
65.958548115672599
 21
-13.0
 31
0.0
  0
LINE
  5
5F
100
AcDbEntity
  8
s001-#def-active-grp
 62
256
370
0
 48
1.0
  6
Continuous
100
AcDbLine
 10
74.618802153516981
 20
-8.0
 30
0.0
 11
202.9978213352507623
 21
214.3589838486224437
 31
0.0
  0
LINE
  5
60
100
AcDbEntity
  8
s001-#def-active-grp
 62
256
370
0
 48
1.0
  6
Continuous
100
AcDbLine
 10
202.9978213352507623
 20
224.3589838486224437
 30
0.0
 11
167.039273219578206
 21
286.641016151377471
 31
0.0
  0
LINE
  5
61
100
AcDbEntity
  8
s001-#def-active-grp
 62
256
370
0
 48
1.0
  6
Continuous
100
AcDbLine
 10
158.3790191817338098
 20
291.641016151377471
 30
0.0
 11
-98.3790191817338382
 21
291.641016151377471
 31
0.0
  0
LINE
  5
62
100
AcDbEntity
  8
s001-#def-active-grp
 62
256
370
0
 48
1.0
  6
Continuous
100
AcDbLine
 10
-107.0392732195782344
 20
286.641016151377471
 30
0.0
 11
-142.9978213352508476
 21
224.3589838486224721
 31
0.0
  0
LINE
  5
63
100
AcDbEntity
  8
s001-#def-active-grp
 62
256
370
0
 48
1.0
  6
Continuous
100
AcDbLine
 10
-45.4256258422040275
 20
256.6410161513775847
 30
0.0
 11
105.4256258422040418
 21
256.6410161513775847
 31
0.0
  0
LINE
  5
64
100
AcDbEntity
  8
s001-#def-active-grp
 62
256
370
0
 48
1.0
  6
Continuous
100
AcDbLine
 10
114.0858798800484237
 20
251.6410161513776131
 30
0.0
 11
146.2102355330305841
 21
196.0000000000000284
 31
0.0
  0
LINE
  5
65
100
AcDbEntity
  8
s001-#def-active-grp
 62
256
370
0
 48
1.0
  6
Continuous
100
AcDbLine
 10
146.2102355330305841
 20
186.0000000000000284
 30
0.0
 11
70.7846096908265139
 21
55.358983848622529
 31
0.0
  0
LINE
  5
66
100
AcDbEntity
  8
s001-#def-active-grp
 62
256
370
0
 48
1.0
  6
Continuous
100
AcDbLine
 10
62.1243556529821248
 20
50.358983848622529
 30
0.0
 11
-2.1243556529821319
 21
50.358983848622529
 31
0.0
  0
LINE
  5
67
100
AcDbEntity
  8
s001-#def-active-grp
 62
256
370
0
 48
1.0
  6
Continuous
100
AcDbLine
 10
-10.7846096908265281
 20
55.358983848622529
 30
0.0
 11
-86.2102355330305272
 21
186.0000000000000284
 31
0.0
  0
LINE
  5
68
100
AcDbEntity
  8
s001-#def-active-grp
 62
256
370
0
 48
1.0
  6
Continuous
100
AcDbLine
 10
-86.2102355330305272
 20
196.0000000000000284
 30
0.0
 11
-54.0858798800484237
 21
251.6410161513776131
 31
0.0
  0
ARC
  5
69
100
AcDbEntity
  8
s001-#def-active-grp
 62
256
370
0
 48
1.0
  6
Continuous
100
AcDbCircle
 10
-134.337567297406423
 20
219.3589838486224721
 30
0.0
 40
10.0000000000000107
100
AcDbArc
 50
150.0
 51
-149.9999999999998863
  0
ARC
  5
6A
100
AcDbEntity
  8
s001-#def-active-grp
 62
256
370
0
 48
1.0
  6
Continuous
100
AcDbCircle
 10
-5.9585481156726132
 20
-2.9999999999998863
 30
0.0
 40
10.0000000000000195
100
AcDbArc
 50
-149.9999999999998863
 51
-90.0
  0
ARC
  5
6B
100
AcDbEntity
  8
s001-#def-active-grp
 62
256
370
0
 48
1.0
  6
Continuous
100
AcDbCircle
 10
65.958548115672599
 20
-2.9999999999998863
 30
0.0
 40
10.0000000000000302
100
AcDbArc
 50
-90.0
 51
-30.0000000000001386
  0
ARC
  5
6C
100
AcDbEntity
  8
s001-#def-active-grp
 62
256
370
0
 48
1.0
  6
Continuous
100
AcDbCircle
 10
194.3375672974064514
 20
219.3589838486224721
 30
0.0
 40
9.9999999999999787
100
AcDbArc
 50
-30.0000000000001599
 51
30.0000000000000249
  0
ARC
  5
6D
100
AcDbEntity
  8
s001-#def-active-grp
 62
256
370
0
 48
1.0
  6
Continuous
100
AcDbCircle
 10
158.3790191817338098
 20
281.641016151377471
 30
0.0
 40
10.0000000000000107
100
AcDbArc
 50
29.9999999999999716
 51
90.0
  0
ARC
  5
6E
100
AcDbEntity
  8
s001-#def-active-grp
 62
256
370
0
 48
1.0
  6
Continuous
100
AcDbCircle
 10
-98.3790191817338382
 20
281.641016151377471
 30
0.0
 40
10.0
100
AcDbArc
 50
90.0
 51
149.999999999999801
  0
ARC
  5
6F
100
AcDbEntity
  8
s001-#def-active-grp
 62
256
370
0
 48
1.0
  6
Continuous
100
AcDbCircle
 10
-32.4352447854374333
 20
274.141016151377471
 30
0.0
 40
2.5
100
AcDbArc
 50
-90.0
 51
0.0
  0
ARC
  5
70
100
AcDbEntity
  8
s001-#def-active-grp
 62
256
370
0
 48
1.0
  6
Continuous
100
AcDbCircle
 10
-32.4352447854374333
 20
274.141016151377471
 30
0.0
 40
2.5
100
AcDbArc
 50
180.0
 51
-90.0
  0
ARC
  5
71
100
AcDbEntity
  8
s001-#def-active-grp
 62
256
370
0
 48
1.0
  6
Continuous
100
AcDbCircle
 10
-32.4352447854374333
 20
274.141016151377471
 30
0.0
 40
2.5
100
AcDbArc
 50
90.0
 51
180.0
  0
ARC
  5
72
100
AcDbEntity
  8
s001-#def-active-grp
 62
256
370
0
 48
1.0
  6
Continuous
100
AcDbCircle
 10
-32.4352447854374333
 20
274.141016151377471
 30
0.0
 40
2.5
100
AcDbArc
 50
0.0
 51
90.0
  0
ARC
  5
73
100
AcDbEntity
  8
s001-#def-active-grp
 62
256
370
0
 48
1.0
  6
Continuous
100
AcDbCircle
 10
30.0000000000000071
 20
274.141016151377471
 30
0.0
 40
2.5
100
AcDbArc
 50
-90.0
 51
0.0
  0
ARC
  5
74
100
AcDbEntity
  8
s001-#def-active-grp
 62
256
370
0
 48
1.0
  6
Continuous
100
AcDbCircle
 10
30.0000000000000071
 20
274.141016151377471
 30
0.0
 40
2.5
100
AcDbArc
 50
180.0
 51
-90.0
  0
ARC
  5
75
100
AcDbEntity
  8
s001-#def-active-grp
 62
256
370
0
 48
1.0
  6
Continuous
100
AcDbCircle
 10
30.0000000000000071
 20
274.141016151377471
 30
0.0
 40
2.5000000000000071
100
AcDbArc
 50
90.0
 51
179.9999999999993747
  0
ARC
  5
76
100
AcDbEntity
  8
s001-#def-active-grp
 62
256
370
0
 48
1.0
  6
Continuous
100
AcDbCircle
 10
30.0000000000000071
 20
274.141016151377471
 30
0.0
 40
2.5
100
AcDbArc
 50
0.0
 51
90.0
  0
ARC
  5
77
100
AcDbEntity
  8
s001-#def-active-grp
 62
256
370
0
 48
1.0
  6
Continuous
100
AcDbCircle
 10
92.4352447854375043
 20
274.141016151377471
 30
0.0
 40
2.5000000000000071
100
AcDbArc
 50
-90.0
 51
0.0
  0
ARC
  5
78
100
AcDbEntity
  8
s001-#def-active-grp
 62
256
370
0
 48
1.0
  6
Continuous
100
AcDbCircle
 10
92.4352447854375043
 20
274.141016151377471
 30
0.0
 40
2.5
100
AcDbArc
 50
180.0
 51
-90.0
  0
ARC
  5
79
100
AcDbEntity
  8
s001-#def-active-grp
 62
256
370
0
 48
1.0
  6
Continuous
100
AcDbCircle
 10
92.4352447854375043
 20
274.141016151377471
 30
0.0
 40
2.5
100
AcDbArc
 50
90.0
 51
180.0
  0
ARC
  5
7A
100
AcDbEntity
  8
s001-#def-active-grp
 62
256
370
0
 48
1.0
  6
Continuous
100
AcDbCircle
 10
92.4352447854375043
 20
274.141016151377471
 30
0.0
 40
2.5
100
AcDbArc
 50
0.0
 51
90.0
  0
ARC
  5
7B
100
AcDbEntity
  8
s001-#def-active-grp
 62
256
370
0
 48
1.0
  6
Continuous
100
AcDbCircle
 10
154.8704895708749518
 20
166.0000000000000284
 30
0.0
 40
2.4999999999999858
100
AcDbArc
 50
-90.0000000000001847
 51
0.0
  0
ARC
  5
7C
100
AcDbEntity
  8
s001-#def-active-grp
 62
256
370
0
 48
1.0
  6
Continuous
100
AcDbCircle
 10
154.8704895708749234
 20
166.0000000000000284
 30
0.0
 40
2.5
100
AcDbArc
 50
180.0
 51
-89.9999999999998295
  0
ARC
  5
7D
100
AcDbEntity
  8
s001-#def-active-grp
 62
256
370
0
 48
1.0
  6
Continuous
100
AcDbCircle
 10
154.8704895708749234
 20
166.0000000000000284
 30
0.0
 40
2.5
100
AcDbArc
 50
90.0
 51
180.0
  0
ARC
  5
7E
100
AcDbEntity
  8
s001-#def-active-grp
 62
256
370
0
 48
1.0
  6
Continuous
100
AcDbCircle
 10
154.8704895708749234
 20
166.0000000000000284
 30
0.0
 40
2.5
100
AcDbArc
 50
0.0
 51
90.0
  0
ARC
  5
7F
100
AcDbEntity
  8
s001-#def-active-grp
 62
256
370
0
 48
1.0
  6
Continuous
100
AcDbCircle
 10
123.6528671781562423
 20
111.9294919243113355
 30
0.0
 40
2.5
100
AcDbArc
 50
-90.0
 51
0.0
  0
ARC
  5
80
100
AcDbEntity
  8
s001-#def-active-grp
 62
256
370
0
 48
1.0
  6
Continuous
100
AcDbCircle
 10
123.6528671781562423
 20
111.9294919243113355
 30
0.0
 40
2.5
100
AcDbArc
 50
180.0
 51
-90.0
  0
ARC
  5
81
100
AcDbEntity
  8
s001-#def-active-grp
 62
256
370
0
 48
1.0
  6
Continuous
100
AcDbCircle
 10
123.6528671781562423
 20
111.9294919243113355
 30
0.0
 40
2.5
100
AcDbArc
 50
90.0
 51
180.0
  0
ARC
  5
82
100
AcDbEntity
  8
s001-#def-active-grp
 62
256
370
0
 48
1.0
  6
Continuous
100
AcDbCircle
 10
123.6528671781562423
 20
111.9294919243113355
 30
0.0
 40
2.5
100
AcDbArc
 50
0.0
 51
90.0
  0
ARC
  5
83
100
AcDbEntity
  8
s001-#def-active-grp
 62
256
370
0
 48
1.0
  6
Continuous
100
AcDbCircle
 10
92.4352447854375328
 20
57.8589838486225574
 30
0.0
 40
2.5
100
AcDbArc
 50
-90.0
 51
0.0
  0
ARC
  5
84
100
AcDbEntity
  8
s001-#def-active-grp
 62
256
370
0
 48
1.0
  6
Continuous
100
AcDbCircle
 10
92.4352447854375328
 20
57.8589838486225574
 30
0.0
 40
2.5
100
AcDbArc
 50
180.0
 51
-90.0
  0
ARC
  5
85
100
AcDbEntity
  8
s001-#def-active-grp
 62
256
370
0
 48
1.0
  6
Continuous
100
AcDbCircle
 10
92.4352447854375328
 20
57.8589838486225574
 30
0.0
 40
2.5
100
AcDbArc
 50
90.0
 51
180.0
  0
ARC
  5
86
100
AcDbEntity
  8
s001-#def-active-grp
 62
256
370
0
 48
1.0
  6
Continuous
100
AcDbCircle
 10
92.4352447854375328
 20
57.8589838486225574
 30
0.0
 40
2.5
100
AcDbArc
 50
0.0
 51
90.0
  0
ARC
  5
87
100
AcDbEntity
  8
s001-#def-active-grp
 62
256
370
0
 48
1.0
  6
Continuous
100
AcDbCircle
 10
-32.4352447854374333
 20
57.8589838486225148
 30
0.0
 40
2.5
100
AcDbArc
 50
-90.0
 51
0.0
  0
ARC
  5
88
100
AcDbEntity
  8
s001-#def-active-grp
 62
256
370
0
 48
1.0
  6
Continuous
100
AcDbCircle
 10
-32.4352447854374333
 20
57.8589838486225148
 30
0.0
 40
2.5
100
AcDbArc
 50
180.0
 51
-90.0
  0
ARC
  5
89
100
AcDbEntity
  8
s001-#def-active-grp
 62
256
370
0
 48
1.0
  6
Continuous
100
AcDbCircle
 10
-32.4352447854374333
 20
57.8589838486225148
 30
0.0
 40
2.5
100
AcDbArc
 50
90.0
 51
180.0
  0
ARC
  5
8A
100
AcDbEntity
  8
s001-#def-active-grp
 62
256
370
0
 48
1.0
  6
Continuous
100
AcDbCircle
 10
-32.4352447854374333
 20
57.8589838486225148
 30
0.0
 40
2.5
100
AcDbArc
 50
0.0
 51
90.0
  0
ARC
  5
8B
100
AcDbEntity
  8
s001-#def-active-grp
 62
256
370
0
 48
1.0
  6
Continuous
100
AcDbCircle
 10
-63.6528671781562423
 20
111.9294919243112645
 30
0.0
 40
2.5
100
AcDbArc
 50
-90.0
 51
0.0
  0
ARC
  5
8C
100
AcDbEntity
  8
s001-#def-active-grp
 62
256
370
0
 48
1.0
  6
Continuous
100
AcDbCircle
 10
-63.6528671781562423
 20
111.9294919243112645
 30
0.0
 40
2.5
100
AcDbArc
 50
180.0
 51
-90.0
  0
ARC
  5
8D
100
AcDbEntity
  8
s001-#def-active-grp
 62
256
370
0
 48
1.0
  6
Continuous
100
AcDbCircle
 10
-63.6528671781562423
 20
111.9294919243112645
 30
0.0
 40
2.5
100
AcDbArc
 50
90.0
 51
180.0
  0
ARC
  5
8E
100
AcDbEntity
  8
s001-#def-active-grp
 62
256
370
0
 48
1.0
  6
Continuous
100
AcDbCircle
 10
-63.6528671781562423
 20
111.9294919243112645
 30
0.0
 40
2.5
100
AcDbArc
 50
0.0
 51
90.0
  0
ARC
  5
8F
100
AcDbEntity
  8
s001-#def-active-grp
 62
256
370
0
 48
1.0
  6
Continuous
100
AcDbCircle
 10
-94.8704895708749234
 20
166.0000000000000284
 30
0.0
 40
2.5
100
AcDbArc
 50
-90.0
 51
0.0000000000006514
  0
ARC
  5
90
100
AcDbEntity
  8
s001-#def-active-grp
 62
256
370
0
 48
1.0
  6
Continuous
100
AcDbCircle
 10
-94.8704895708749234
 20
166.0000000000000568
 30
0.0
 40
2.500000000000028
100
AcDbArc
 50
-179.9999999999993747
 51
-90.0
  0
ARC
  5
91
100
AcDbEntity
  8
s001-#def-active-grp
 62
256
370
0
 48
1.0
  6
Continuous
100
AcDbCircle
 10
-94.8704895708749234
 20
166.0000000000000284
 30
0.0
 40
2.5
100
AcDbArc
 50
90.0
 51
179.9999999999993747
  0
ARC
  5
92
100
AcDbEntity
  8
s001-#def-active-grp
 62
256
370
0
 48
1.0
  6
Continuous
100
AcDbCircle
 10
-94.8704895708749234
 20
166.0000000000000568
 30
0.0
 40
2.499999999999972
100
AcDbArc
 50
-0.0000000000006514
 51
90.0
  0
ARC
  5
93
100
AcDbEntity
  8
s001-#def-active-grp
 62
256
370
0
 48
1.0
  6
Continuous
100
AcDbCircle
 10
-81.4397089525279227
 20
264.980762113533217
 30
0.0
 40
2.5
100
AcDbArc
 50
-90.0
 51
0.0
  0
ARC
  5
94
100
AcDbEntity
  8
s001-#def-active-grp
 62
256
370
0
 48
1.0
  6
Continuous
100
AcDbCircle
 10
-81.4397089525279227
 20
264.980762113533217
 30
0.0
 40
2.4999999999999858
100
AcDbArc
 50
180.0
 51
-90.0
  0
ARC
  5
95
100
AcDbEntity
  8
s001-#def-active-grp
 62
256
370
0
 48
1.0
  6
Continuous
100
AcDbCircle
 10
-81.4397089525279227
 20
264.980762113533217
 30
0.0
 40
2.5
100
AcDbArc
 50
90.0
 51
180.0
  0
ARC
  5
96
100
AcDbEntity
  8
s001-#def-active-grp
 62
256
370
0
 48
1.0
  6
Continuous
100
AcDbCircle
 10
-81.4397089525279227
 20
264.980762113533217
 30
0.0
 40
2.5
100
AcDbArc
 50
0.0
 51
90.0
  0
ARC
  5
97
100
AcDbEntity
  8
s001-#def-active-grp
 62
256
370
0
 48
1.0
  6
Continuous
100
AcDbCircle
 10
-98.7602170282167435
 20
274.9807621135332738
 30
0.0
 40
2.5
100
AcDbArc
 50
-90.0
 51
-0.0000000000006514
  0
ARC
  5
98
100
AcDbEntity
  8
s001-#def-active-grp
 62
256
370
0
 48
1.0
  6
Continuous
100
AcDbCircle
 10
-98.7602170282167435
 20
274.980762113533217
 30
0.0
 40
2.499999999999972
100
AcDbArc
 50
179.9999999999993747
 51
-90.0
  0
ARC
  5
99
100
AcDbEntity
  8
s001-#def-active-grp
 62
256
370
0
 48
1.0
  6
Continuous
100
AcDbCircle
 10
-98.7602170282167435
 20
274.9807621135332738
 30
0.0
 40
2.5
100
AcDbArc
 50
90.0
 51
-179.9999999999993747
  0
ARC
  5
9A
100
AcDbEntity
  8
s001-#def-active-grp
 62
256
370
0
 48
1.0
  6
Continuous
100
AcDbCircle
 10
-98.7602170282167435
 20
274.980762113533217
 30
0.0
 40
2.500000000000028
100
AcDbArc
 50
0.0000000000006514
 51
90.0
  0
ARC
  5
9B
100
AcDbEntity
  8
s001-#def-active-grp
 62
256
370
0
 48
1.0
  6
Continuous
100
AcDbCircle
 10
-108.7602170282167435
 20
257.6602540378445383
 30
0.0
 40
2.5
100
AcDbArc
 50
-90.0
 51
-0.0000000000006514
  0
ARC
  5
9C
100
AcDbEntity
  8
s001-#def-active-grp
 62
256
370
0
 48
1.0
  6
Continuous
100
AcDbCircle
 10
-108.7602170282167435
 20
257.6602540378444246
 30
0.0
 40
2.499999999999972
100
AcDbArc
 50
179.9999999999993747
 51
-90.0
  0
ARC
  5
9D
100
AcDbEntity
  8
s001-#def-active-grp
 62
256
370
0
 48
1.0
  6
Continuous
100
AcDbCircle
 10
-108.7602170282167435
 20
257.6602540378445383
 30
0.0
 40
2.5
100
AcDbArc
 50
90.0
 51
-179.9999999999993747
  0
ARC
  5
9E
100
AcDbEntity
  8
s001-#def-active-grp
 62
256
370
0
 48
1.0
  6
Continuous
100
AcDbCircle
 10
-108.7602170282167435
 20
257.6602540378444246
 30
0.0
 40
2.500000000000028
100
AcDbArc
 50
0.0000000000006514
 51
90.0
  0
ARC
  5
9F
100
AcDbEntity
  8
s001-#def-active-grp
 62
256
370
0
 48
1.0
  6
Continuous
100
AcDbCircle
 10
-118.7602170282167435
 20
240.3397459621556891
 30
0.0
 40
2.5
100
AcDbArc
 50
-90.0
 51
0.0
  0
ARC
  5
A0
100
AcDbEntity
  8
s001-#def-active-grp
 62
256
370
0
 48
1.0
  6
Continuous
100
AcDbCircle
 10
-118.7602170282167435
 20
240.3397459621556891
 30
0.0
 40
2.5
100
AcDbArc
 50
180.0
 51
-90.0
  0
ARC
  5
A1
100
AcDbEntity
  8
s001-#def-active-grp
 62
256
370
0
 48
1.0
  6
Continuous
100
AcDbCircle
 10
-118.7602170282167435
 20
240.3397459621556891
 30
0.0
 40
2.5
100
AcDbArc
 50
90.0
 51
180.0
  0
ARC
  5
A2
100
AcDbEntity
  8
s001-#def-active-grp
 62
256
370
0
 48
1.0
  6
Continuous
100
AcDbCircle
 10
-118.7602170282167435
 20
240.3397459621556891
 30
0.0
 40
2.5
100
AcDbArc
 50
0.0
 51
90.0
  0
ARC
  5
A3
100
AcDbEntity
  8
s001-#def-active-grp
 62
256
370
0
 48
1.0
  6
Continuous
100
AcDbCircle
 10
-128.7602170282167435
 20
223.0192378864669536
 30
0.0
 40
2.5
100
AcDbArc
 50
-90.0
 51
0.0
  0
ARC
  5
A4
100
AcDbEntity
  8
s001-#def-active-grp
 62
256
370
0
 48
1.0
  6
Continuous
100
AcDbCircle
 10
-128.7602170282167435
 20
223.0192378864669536
 30
0.0
 40
2.5
100
AcDbArc
 50
180.0
 51
-90.0
  0
ARC
  5
A5
100
AcDbEntity
  8
s001-#def-active-grp
 62
256
370
0
 48
1.0
  6
Continuous
100
AcDbCircle
 10
-128.7602170282167435
 20
223.0192378864669536
 30
0.0
 40
2.5
100
AcDbArc
 50
90.0
 51
180.0
  0
ARC
  5
A6
100
AcDbEntity
  8
s001-#def-active-grp
 62
256
370
0
 48
1.0
  6
Continuous
100
AcDbCircle
 10
-128.7602170282167435
 20
223.0192378864669536
 30
0.0
 40
2.5
100
AcDbArc
 50
0.0
 51
90.0
  0
ARC
  5
A7
100
AcDbEntity
  8
s001-#def-active-grp
 62
256
370
0
 48
1.0
  6
Continuous
100
AcDbCircle
 10
-111.4397089525280364
 20
213.0192378864669251
 30
0.0
 40
2.5
100
AcDbArc
 50
-90.0
 51
0.0
  0
ARC
  5
A8
100
AcDbEntity
  8
s001-#def-active-grp
 62
256
370
0
 48
1.0
  6
Continuous
100
AcDbCircle
 10
-111.4397089525280364
 20
213.0192378864669251
 30
0.0
 40
2.5
100
AcDbArc
 50
180.0
 51
-90.0
  0
ARC
  5
A9
100
AcDbEntity
  8
s001-#def-active-grp
 62
256
370
0
 48
1.0
  6
Continuous
100
AcDbCircle
 10
-111.4397089525280364
 20
213.0192378864669251
 30
0.0
 40
2.5
100
AcDbArc
 50
90.0
 51
180.0
  0
ARC
  5
AA
100
AcDbEntity
  8
s001-#def-active-grp
 62
256
370
0
 48
1.0
  6
Continuous
100
AcDbCircle
 10
-111.4397089525280364
 20
213.0192378864669251
 30
0.0
 40
2.5
100
AcDbArc
 50
0.0
 51
90.0
  0
ARC
  5
AB
100
AcDbEntity
  8
s001-#def-active-grp
 62
256
370
0
 48
1.0
  6
Continuous
100
AcDbCircle
 10
0.0
 20
0.0
 30
0.0
 40
2.5
100
AcDbArc
 50
-90.0
 51
0.0
  0
ARC
  5
AC
100
AcDbEntity
  8
s001-#def-active-grp
 62
256
370
0
 48
1.0
  6
Continuous
100
AcDbCircle
 10
0.0
 20
0.0
 30
0.0
 40
2.5
100
AcDbArc
 50
180.0
 51
-90.0
  0
ARC
  5
AD
100
AcDbEntity
  8
s001-#def-active-grp
 62
256
370
0
 48
1.0
  6
Continuous
100
AcDbCircle
 10
0.0
 20
0.0
 30
0.0
 40
2.5
100
AcDbArc
 50
90.0
 51
180.0
  0
ARC
  5
AE
100
AcDbEntity
  8
s001-#def-active-grp
 62
256
370
0
 48
1.0
  6
Continuous
100
AcDbCircle
 10
0.0
 20
0.0
 30
0.0
 40
2.5
100
AcDbArc
 50
0.0
 51
90.0
  0
ARC
  5
AF
100
AcDbEntity
  8
s001-#def-active-grp
 62
256
370
0
 48
1.0
  6
Continuous
100
AcDbCircle
 10
0.0
 20
20.0000000000000142
 30
0.0
 40
2.5
100
AcDbArc
 50
-90.0
 51
0.0
  0
ARC
  5
B0
100
AcDbEntity
  8
s001-#def-active-grp
 62
256
370
0
 48
1.0
  6
Continuous
100
AcDbCircle
 10
0.0
 20
20.0000000000000142
 30
0.0
 40
2.5
100
AcDbArc
 50
180.0
 51
-90.0
  0
ARC
  5
B1
100
AcDbEntity
  8
s001-#def-active-grp
 62
256
370
0
 48
1.0
  6
Continuous
100
AcDbCircle
 10
0.0
 20
20.0000000000000142
 30
0.0
 40
2.5
100
AcDbArc
 50
90.0
 51
180.0
  0
ARC
  5
B2
100
AcDbEntity
  8
s001-#def-active-grp
 62
256
370
0
 48
1.0
  6
Continuous
100
AcDbCircle
 10
0.0
 20
20.0000000000000142
 30
0.0
 40
2.5
100
AcDbArc
 50
0.0
 51
90.0
  0
ARC
  5
B3
100
AcDbEntity
  8
s001-#def-active-grp
 62
256
370
0
 48
1.0
  6
Continuous
100
AcDbCircle
 10
20.0
 20
0.0
 30
0.0
 40
2.5
100
AcDbArc
 50
-90.0
 51
0.0
  0
ARC
  5
B4
100
AcDbEntity
  8
s001-#def-active-grp
 62
256
370
0
 48
1.0
  6
Continuous
100
AcDbCircle
 10
20.0
 20
0.0
 30
0.0
 40
2.5
100
AcDbArc
 50
180.0
 51
-90.0
  0
ARC
  5
B5
100
AcDbEntity
  8
s001-#def-active-grp
 62
256
370
0
 48
1.0
  6
Continuous
100
AcDbCircle
 10
20.0
 20
0.0
 30
0.0
 40
2.5
100
AcDbArc
 50
90.0
 51
180.0
  0
ARC
  5
B6
100
AcDbEntity
  8
s001-#def-active-grp
 62
256
370
0
 48
1.0
  6
Continuous
100
AcDbCircle
 10
20.0
 20
0.0
 30
0.0
 40
2.5
100
AcDbArc
 50
0.0
 51
90.0
  0
ARC
  5
B7
100
AcDbEntity
  8
s001-#def-active-grp
 62
256
370
0
 48
1.0
  6
Continuous
100
AcDbCircle
 10
40.0000000000000071
 20
0.0
 30
0.0
 40
2.5
100
AcDbArc
 50
-90.0
 51
0.0
  0
ARC
  5
B8
100
AcDbEntity
  8
s001-#def-active-grp
 62
256
370
0
 48
1.0
  6
Continuous
100
AcDbCircle
 10
40.0000000000000071
 20
0.0
 30
0.0
 40
2.5
100
AcDbArc
 50
180.0
 51
-90.0
  0
ARC
  5
B9
100
AcDbEntity
  8
s001-#def-active-grp
 62
256
370
0
 48
1.0
  6
Continuous
100
AcDbCircle
 10
40.0000000000000071
 20
0.0
 30
0.0
 40
2.5
100
AcDbArc
 50
90.0
 51
180.0
  0
ARC
  5
BA
100
AcDbEntity
  8
s001-#def-active-grp
 62
256
370
0
 48
1.0
  6
Continuous
100
AcDbCircle
 10
40.0000000000000071
 20
0.0
 30
0.0
 40
2.5
100
AcDbArc
 50
0.0
 51
90.0
  0
ARC
  5
BB
100
AcDbEntity
  8
s001-#def-active-grp
 62
256
370
0
 48
1.0
  6
Continuous
100
AcDbCircle
 10
60.0000000000000071
 20
0.0
 30
0.0
 40
2.5
100
AcDbArc
 50
-90.0
 51
0.0
  0
ARC
  5
BC
100
AcDbEntity
  8
s001-#def-active-grp
 62
256
370
0
 48
1.0
  6
Continuous
100
AcDbCircle
 10
60.0000000000000071
 20
0.0
 30
0.0
 40
2.5
100
AcDbArc
 50
180.0
 51
-90.0
  0
ARC
  5
BD
100
AcDbEntity
  8
s001-#def-active-grp
 62
256
370
0
 48
1.0
  6
Continuous
100
AcDbCircle
 10
60.0000000000000071
 20
0.0
 30
0.0
 40
2.5
100
AcDbArc
 50
90.0
 51
180.0
  0
ARC
  5
BE
100
AcDbEntity
  8
s001-#def-active-grp
 62
256
370
0
 48
1.0
  6
Continuous
100
AcDbCircle
 10
60.0000000000000071
 20
0.0
 30
0.0
 40
2.5
100
AcDbArc
 50
0.0
 51
90.0
  0
ARC
  5
BF
100
AcDbEntity
  8
s001-#def-active-grp
 62
256
370
0
 48
1.0
  6
Continuous
100
AcDbCircle
 10
60.0000000000000071
 20
20.0000000000000142
 30
0.0
 40
2.5
100
AcDbArc
 50
-90.0
 51
0.0
  0
ARC
  5
C0
100
AcDbEntity
  8
s001-#def-active-grp
 62
256
370
0
 48
1.0
  6
Continuous
100
AcDbCircle
 10
60.0000000000000071
 20
20.0000000000000142
 30
0.0
 40
2.5
100
AcDbArc
 50
180.0
 51
-90.0
  0
ARC
  5
C1
100
AcDbEntity
  8
s001-#def-active-grp
 62
256
370
0
 48
1.0
  6
Continuous
100
AcDbCircle
 10
60.0000000000000071
 20
20.0000000000000142
 30
0.0
 40
2.5
100
AcDbArc
 50
90.0
 51
180.0
  0
ARC
  5
C2
100
AcDbEntity
  8
s001-#def-active-grp
 62
256
370
0
 48
1.0
  6
Continuous
100
AcDbCircle
 10
60.0000000000000071
 20
20.0000000000000142
 30
0.0
 40
2.5
100
AcDbArc
 50
0.0
 51
90.0
  0
ARC
  5
C3
100
AcDbEntity
  8
s001-#def-active-grp
 62
256
370
0
 48
1.0
  6
Continuous
100
AcDbCircle
 10
171.4397089525280649
 20
213.0192378864668399
 30
0.0
 40
2.5
100
AcDbArc
 50
-90.0
 51
0.0
  0
ARC
  5
C4
100
AcDbEntity
  8
s001-#def-active-grp
 62
256
370
0
 48
1.0
  6
Continuous
100
AcDbCircle
 10
171.4397089525280649
 20
213.0192378864668399
 30
0.0
 40
2.5
100
AcDbArc
 50
180.0
 51
-90.0
  0
ARC
  5
C5
100
AcDbEntity
  8
s001-#def-active-grp
 62
256
370
0
 48
1.0
  6
Continuous
100
AcDbCircle
 10
171.4397089525280649
 20
213.0192378864668399
 30
0.0
 40
2.5
100
AcDbArc
 50
90.0
 51
180.0
  0
ARC
  5
C6
100
AcDbEntity
  8
s001-#def-active-grp
 62
256
370
0
 48
1.0
  6
Continuous
100
AcDbCircle
 10
171.4397089525280649
 20
213.0192378864668399
 30
0.0
 40
2.5
100
AcDbArc
 50
0.0
 51
90.0
  0
ARC
  5
C7
100
AcDbEntity
  8
s001-#def-active-grp
 62
256
370
0
 48
1.0
  6
Continuous
100
AcDbCircle
 10
188.7602170282168572
 20
223.0192378864668399
 30
0.0
 40
2.5
100
AcDbArc
 50
-90.0
 51
0.0
  0
ARC
  5
C8
100
AcDbEntity
  8
s001-#def-active-grp
 62
256
370
0
 48
1.0
  6
Continuous
100
AcDbCircle
 10
188.7602170282168572
 20
223.0192378864668399
 30
0.0
 40
2.5
100
AcDbArc
 50
180.0
 51
-90.0
  0
ARC
  5
C9
100
AcDbEntity
  8
s001-#def-active-grp
 62
256
370
0
 48
1.0
  6
Continuous
100
AcDbCircle
 10
188.7602170282168572
 20
223.0192378864668399
 30
0.0
 40
2.5
100
AcDbArc
 50
90.0
 51
180.0
  0
ARC
  5
CA
100
AcDbEntity
  8
s001-#def-active-grp
 62
256
370
0
 48
1.0
  6
Continuous
100
AcDbCircle
 10
188.7602170282168572
 20
223.0192378864668399
 30
0.0
 40
2.5
100
AcDbArc
 50
0.0
 51
90.0
  0
ARC
  5
CB
100
AcDbEntity
  8
s001-#def-active-grp
 62
256
370
0
 48
1.0
  6
Continuous
100
AcDbCircle
 10
178.7602170282168572
 20
240.3397459621556038
 30
0.0
 40
2.4999999999999858
100
AcDbArc
 50
-90.0000000000003126
 51
0.0
  0
ARC
  5
CC
100
AcDbEntity
  8
s001-#def-active-grp
 62
256
370
0
 48
1.0
  6
Continuous
100
AcDbCircle
 10
178.7602170282168572
 20
240.3397459621556038
 30
0.0
 40
2.5
100
AcDbArc
 50
180.0
 51
-89.9999999999996874
  0
ARC
  5
CD
100
AcDbEntity
  8
s001-#def-active-grp
 62
256
370
0
 48
1.0
  6
Continuous
100
AcDbCircle
 10
178.7602170282168572
 20
240.3397459621556038
 30
0.0
 40
2.5000000000000142
100
AcDbArc
 50
90.0000000000003126
 51
180.0
  0
ARC
  5
CE
100
AcDbEntity
  8
s001-#def-active-grp
 62
256
370
0
 48
1.0
  6
Continuous
100
AcDbCircle
 10
178.7602170282168572
 20
240.3397459621556038
 30
0.0
 40
2.5
100
AcDbArc
 50
0.0
 51
89.9999999999996874
  0
ARC
  5
CF
100
AcDbEntity
  8
s001-#def-active-grp
 62
256
370
0
 48
1.0
  6
Continuous
100
AcDbCircle
 10
168.7602170282168572
 20
257.6602540378444246
 30
0.0
 40
2.5
100
AcDbArc
 50
-90.0
 51
0.0
  0
ARC
  5
D0
100
AcDbEntity
  8
s001-#def-active-grp
 62
256
370
0
 48
1.0
  6
Continuous
100
AcDbCircle
 10
168.7602170282168572
 20
257.6602540378444246
 30
0.0
 40
2.5
100
AcDbArc
 50
180.0
 51
-90.0
  0
ARC
  5
D1
100
AcDbEntity
  8
s001-#def-active-grp
 62
256
370
0
 48
1.0
  6
Continuous
100
AcDbCircle
 10
168.7602170282168572
 20
257.6602540378444246
 30
0.0
 40
2.5000000000000142
100
AcDbArc
 50
90.0000000000003126
 51
180.0
  0
ARC
  5
D2
100
AcDbEntity
  8
s001-#def-active-grp
 62
256
370
0
 48
1.0
  6
Continuous
100
AcDbCircle
 10
168.7602170282168572
 20
257.6602540378444246
 30
0.0
 40
2.5
100
AcDbArc
 50
0.0
 51
89.9999999999996874
  0
ARC
  5
D3
100
AcDbEntity
  8
s001-#def-active-grp
 62
256
370
0
 48
1.0
  6
Continuous
100
AcDbCircle
 10
158.7602170282168572
 20
274.980762113533217
 30
0.0
 40
2.5
100
AcDbArc
 50
-90.0
 51
0.0
  0
ARC
  5
D4
100
AcDbEntity
  8
s001-#def-active-grp
 62
256
370
0
 48
1.0
  6
Continuous
100
AcDbCircle
 10
158.7602170282168572
 20
274.980762113533217
 30
0.0
 40
2.5
100
AcDbArc
 50
180.0
 51
-90.0
  0
ARC
  5
D5
100
AcDbEntity
  8
s001-#def-active-grp
 62
256
370
0
 48
1.0
  6
Continuous
100
AcDbCircle
 10
158.7602170282168572
 20
274.980762113533217
 30
0.0
 40
2.4999999999999929
100
AcDbArc
 50
90.0
 51
180.0
  0
ARC
  5
D6
100
AcDbEntity
  8
s001-#def-active-grp
 62
256
370
0
 48
1.0
  6
Continuous
100
AcDbCircle
 10
158.7602170282168572
 20
274.980762113533217
 30
0.0
 40
2.5
100
AcDbArc
 50
0.0
 51
90.0
  0
ARC
  5
D7
100
AcDbEntity
  8
s001-#def-active-grp
 62
256
370
0
 48
1.0
  6
Continuous
100
AcDbCircle
 10
141.4397089525280649
 20
264.980762113533217
 30
0.0
 40
2.5000000000000142
100
AcDbArc
 50
-89.9999999999996874
 51
0.0
  0
ARC
  5
D8
100
AcDbEntity
  8
s001-#def-active-grp
 62
256
370
0
 48
1.0
  6
Continuous
100
AcDbCircle
 10
141.4397089525280933
 20
264.980762113533217
 30
0.0
 40
2.4999999999999858
100
AcDbArc
 50
180.0
 51
-90.0000000000003126
  0
ARC
  5
D9
100
AcDbEntity
  8
s001-#def-active-grp
 62
256
370
0
 48
1.0
  6
Continuous
100
AcDbCircle
 10
141.4397089525280649
 20
264.980762113533217
 30
0.0
 40
2.5
100
AcDbArc
 50
90.0
 51
180.0
  0
ARC
  5
DA
100
AcDbEntity
  8
s001-#def-active-grp
 62
256
370
0
 48
1.0
  6
Continuous
100
AcDbCircle
 10
141.4397089525280649
 20
264.980762113533217
 30
0.0
 40
2.5
100
AcDbArc
 50
0.0
 51
90.0
  0
ARC
  5
DB
100
AcDbEntity
  8
s001-#def-active-grp
 62
256
370
0
 48
1.0
  6
Continuous
100
AcDbCircle
 10
105.4256258422040418
 20
246.6410161513776131
 30
0.0
 40
10.0
100
AcDbArc
 50
30.0000000000000249
 51
90.0
  0
ARC
  5
DC
100
AcDbEntity
  8
s001-#def-active-grp
 62
256
370
0
 48
1.0
  6
Continuous
100
AcDbCircle
 10
137.5499814951862163
 20
191.0000000000000284
 30
0.0
 40
10.0
100
AcDbArc
 50
-29.9999999999999929
 51
29.9999999999999929
  0
ARC
  5
DD
100
AcDbEntity
  8
s001-#def-active-grp
 62
256
370
0
 48
1.0
  6
Continuous
100
AcDbCircle
 10
62.1243556529821035
 20
60.3589838486225574
 30
0.0
 40
10.0000000000000409
100
AcDbArc
 50
-89.9999999999998863
 51
-30.0000000000000746
  0
ARC
  5
DE
100
AcDbEntity
  8
s001-#def-active-grp
 62
256
370
0
 48
1.0
  6
Continuous
100
AcDbCircle
 10
-2.1243556529821035
 20
60.3589838486225574
 30
0.0
 40
10.0000000000000302
100
AcDbArc
 50
-150.0
 51
-90.0000000000001847
  0
ARC
  5
DF
100
AcDbEntity
  8
s001-#def-active-grp
 62
256
370
0
 48
1.0
  6
Continuous
100
AcDbCircle
 10
-77.549981495186131
 20
191.0000000000000284
 30
0.0
 40
10.0000000000000604
100
AcDbArc
 50
150.000000000000199
 51
-150.0000000000001137
  0
ARC
  5
E0
100
AcDbEntity
  8
s001-#def-active-grp
 62
256
370
0
 48
1.0
  6
Continuous
100
AcDbCircle
 10
-45.4256258422040275
 20
246.6410161513775279
 30
0.0
 40
10.0000000000000195
100
AcDbArc
 50
90.0
 51
149.9999999999998863
  0
ENDBLK
  5
E1
100
AcDbEntity
  8
0
100
AcDbBlockEnd
  0
BLOCK
  5
E2
100
AcDbEntity
  8
0
100
AcDbBlockBegin
  2
bottom
 70
0
 10
0.0
 20
0.0
 30
0.0
  3
bottom
  1

  0
LINE
  5
E3
100
AcDbEntity
  8
s001-#def-active-grp
 62
256
370
0
 48
1.0
  6
Continuous
100
AcDbLine
 10
-107.0392732195781775
 20
286.641016151377471
 30
0.0
 11
-142.9978213352507908
 21
224.3589838486224153
 31
0.0
  0
LINE
  5
E4
100
AcDbEntity
  8
s001-#def-active-grp
 62
256
370
0
 48
1.0
  6
Continuous
100
AcDbLine
 10
-142.9978213352507908
 20
214.3589838486224153
 30
0.0
 11
-14.618802153516981
 21
-8.0
 31
0.0
  0
LINE
  5
E5
100
AcDbEntity
  8
s001-#def-active-grp
 62
256
370
0
 48
1.0
  6
Continuous
100
AcDbLine
 10
-5.9585481156725848
 20
-13.0
 30
0.0
 11
65.958548115672599
 21
-13.0
 31
0.0
  0
LINE
  5
E6
100
AcDbEntity
  8
s001-#def-active-grp
 62
256
370
0
 48
1.0
  6
Continuous
100
AcDbLine
 10
74.618802153516981
 20
-8.0
 30
0.0
 11
202.9978213352508192
 21
214.3589838486224153
 31
0.0
  0
LINE
  5
E7
100
AcDbEntity
  8
s001-#def-active-grp
 62
256
370
0
 48
1.0
  6
Continuous
100
AcDbLine
 10
202.9978213352508192
 20
224.3589838486224153
 30
0.0
 11
167.039273219578206
 21
286.641016151377471
 31
0.0
  0
LINE
  5
E8
100
AcDbEntity
  8
s001-#def-active-grp
 62
256
370
0
 48
1.0
  6
Continuous
100
AcDbLine
 10
158.3790191817338098
 20
291.641016151377471
 30
0.0
 11
-98.379019181733895
 21
291.641016151377471
 31
0.0
  0
LINE
  5
E9
100
AcDbEntity
  8
s001-#def-active-grp
 62
256
370
0
 48
1.0
  6
Continuous
100
AcDbLine
 10
28.0000000000000071
 20
20.0
 30
0.0
 11
28.0000000000000071
 21
24.9999999999999858
 31
0.0
  0
LINE
  5
EA
100
AcDbEntity
  8
s001-#def-active-grp
 62
256
370
0
 48
1.0
  6
Continuous
100
AcDbLine
 10
32.0000000000000071
 20
24.9999999999999858
 30
0.0
 11
32.0000000000000071
 21
20.0
 31
0.0
  0
LINE
  5
EB
100
AcDbEntity
  8
s001-#def-active-grp
 62
256
370
0
 48
1.0
  6
Continuous
100
AcDbLine
 10
-95.4397089525279796
 20
240.7320508075688963
 30
0.0
 11
-91.1095819336057957
 21
238.2320508075688963
 31
0.0
  0
LINE
  5
EC
100
AcDbEntity
  8
s001-#def-active-grp
 62
256
370
0
 48
1.0
  6
Continuous
100
AcDbLine
 10
-93.1095819336057957
 20
234.7679491924311606
 30
0.0
 11
-97.4397089525279796
 21
237.2679491924311606
 31
0.0
  0
LINE
  5
ED
100
AcDbEntity
  8
s001-#def-active-grp
 62
256
370
0
 48
1.0
  6
Continuous
100
AcDbLine
 10
157.4397089525280649
 20
237.2679491924310753
 30
0.0
 11
153.109581933605881
 21
234.7679491924310753
 31
0.0
  0
LINE
  5
EE
100
AcDbEntity
  8
s001-#def-active-grp
 62
256
370
0
 48
1.0
  6
Continuous
100
AcDbLine
 10
151.109581933605881
 20
238.2320508075688394
 30
0.0
 11
155.4397089525280649
 21
240.7320508075688394
 31
0.0
  0
ARC
  5
EF
100
AcDbEntity
  8
s001-#def-active-grp
 62
256
370
0
 48
1.0
  6
Continuous
100
AcDbCircle
 10
-98.379019181733895
 20
281.6410161513775847
 30
0.0
 40
9.9999999999999716
100
AcDbArc
 50
90.0
 51
150.0000000000001137
  0
ARC
  5
F0
100
AcDbEntity
  8
s001-#def-active-grp
 62
256
370
0
 48
1.0
  6
Continuous
100
AcDbCircle
 10
-134.3375672974064798
 20
219.3589838486224153
 30
0.0
 40
9.9999999999999591
100
AcDbArc
 50
149.9999999999998863
 51
-149.9999999999998863
  0
ARC
  5
F1
100
AcDbEntity
  8
s001-#def-active-grp
 62
256
370
0
 48
1.0
  6
Continuous
100
AcDbCircle
 10
-5.9585481156725848
 20
-3.0
 30
0.0
 40
10.0000000000000195
100
AcDbArc
 50
-149.9999999999998863
 51
-90.0
  0
ARC
  5
F2
100
AcDbEntity
  8
s001-#def-active-grp
 62
256
370
0
 48
1.0
  6
Continuous
100
AcDbCircle
 10
65.958548115672599
 20
-3.0
 30
0.0
 40
10.0000000000000302
100
AcDbArc
 50
-90.0
 51
-30.0000000000001386
  0
ARC
  5
F3
100
AcDbEntity
  8
s001-#def-active-grp
 62
256
370
0
 48
1.0
  6
Continuous
100
AcDbCircle
 10
194.3375672974063946
 20
219.3589838486224153
 30
0.0
 40
10.0000000000000302
100
AcDbArc
 50
-29.9999999999998899
 51
29.9999999999998899
  0
ARC
  5
F4
100
AcDbEntity
  8
s001-#def-active-grp
 62
256
370
0
 48
1.0
  6
Continuous
100
AcDbCircle
 10
158.3790191817338098
 20
281.641016151377471
 30
0.0
 40
10.0000000000000195
100
AcDbArc
 50
30.0000000000001066
 51
90.0
  0
ARC
  5
F5
100
AcDbEntity
  8
s001-#def-active-grp
 62
256
370
0
 48
1.0
  6
Continuous
100
AcDbCircle
 10
0.0
 20
20.0
 30
0.0
 40
2.5
100
AcDbArc
 50
-90.0
 51
0.0
  0
ARC
  5
F6
100
AcDbEntity
  8
s001-#def-active-grp
 62
256
370
0
 48
1.0
  6
Continuous
100
AcDbCircle
 10
0.0
 20
20.0
 30
0.0
 40
2.5
100
AcDbArc
 50
180.0
 51
-90.0
  0
ARC
  5
F7
100
AcDbEntity
  8
s001-#def-active-grp
 62
256
370
0
 48
1.0
  6
Continuous
100
AcDbCircle
 10
0.0
 20
20.0
 30
0.0
 40
2.5
100
AcDbArc
 50
90.0
 51
180.0
  0
ARC
  5
F8
100
AcDbEntity
  8
s001-#def-active-grp
 62
256
370
0
 48
1.0
  6
Continuous
100
AcDbCircle
 10
0.0
 20
20.0
 30
0.0
 40
2.5000000000000142
100
AcDbArc
 50
0.0
 51
90.0
  0
ARC
  5
F9
100
AcDbEntity
  8
s001-#def-active-grp
 62
256
370
0
 48
1.0
  6
Continuous
100
AcDbCircle
 10
0.0
 20
0.0
 30
0.0
 40
2.5
100
AcDbArc
 50
-90.0
 51
0.0
  0
ARC
  5
FA
100
AcDbEntity
  8
s001-#def-active-grp
 62
256
370
0
 48
1.0
  6
Continuous
100
AcDbCircle
 10
0.0
 20
0.0
 30
0.0
 40
2.5
100
AcDbArc
 50
180.0
 51
-90.0
  0
ARC
  5
FB
100
AcDbEntity
  8
s001-#def-active-grp
 62
256
370
0
 48
1.0
  6
Continuous
100
AcDbCircle
 10
0.0
 20
0.0
 30
0.0
 40
2.5
100
AcDbArc
 50
90.0
 51
180.0
  0
ARC
  5
FC
100
AcDbEntity
  8
s001-#def-active-grp
 62
256
370
0
 48
1.0
  6
Continuous
100
AcDbCircle
 10
0.0
 20
0.0
 30
0.0
 40
2.5
100
AcDbArc
 50
0.0
 51
90.0
  0
ARC
  5
FD
100
AcDbEntity
  8
s001-#def-active-grp
 62
256
370
0
 48
1.0
  6
Continuous
100
AcDbCircle
 10
20.0000000000000071
 20
0.0
 30
0.0
 40
2.5
100
AcDbArc
 50
-90.0
 51
0.0
  0
ARC
  5
FE
100
AcDbEntity
  8
s001-#def-active-grp
 62
256
370
0
 48
1.0
  6
Continuous
100
AcDbCircle
 10
20.0000000000000071
 20
0.0
 30
0.0
 40
2.5
100
AcDbArc
 50
180.0
 51
-90.0
  0
ARC
  5
FF
100
AcDbEntity
  8
s001-#def-active-grp
 62
256
370
0
 48
1.0
  6
Continuous
100
AcDbCircle
 10
20.0000000000000071
 20
0.0
 30
0.0
 40
2.5
100
AcDbArc
 50
90.0
 51
180.0
  0
ARC
  5
100
100
AcDbEntity
  8
s001-#def-active-grp
 62
256
370
0
 48
1.0
  6
Continuous
100
AcDbCircle
 10
20.0000000000000071
 20
0.0
 30
0.0
 40
2.5
100
AcDbArc
 50
0.0
 51
90.0
  0
ARC
  5
101
100
AcDbEntity
  8
s001-#def-active-grp
 62
256
370
0
 48
1.0
  6
Continuous
100
AcDbCircle
 10
40.0000000000000071
 20
0.0
 30
0.0
 40
2.5
100
AcDbArc
 50
-90.0
 51
0.0
  0
ARC
  5
102
100
AcDbEntity
  8
s001-#def-active-grp
 62
256
370
0
 48
1.0
  6
Continuous
100
AcDbCircle
 10
40.0000000000000071
 20
0.0
 30
0.0
 40
2.5
100
AcDbArc
 50
180.0
 51
-90.0
  0
ARC
  5
103
100
AcDbEntity
  8
s001-#def-active-grp
 62
256
370
0
 48
1.0
  6
Continuous
100
AcDbCircle
 10
40.0000000000000071
 20
0.0
 30
0.0
 40
2.5
100
AcDbArc
 50
90.0
 51
180.0
  0
ARC
  5
104
100
AcDbEntity
  8
s001-#def-active-grp
 62
256
370
0
 48
1.0
  6
Continuous
100
AcDbCircle
 10
40.0000000000000071
 20
0.0
 30
0.0
 40
2.5
100
AcDbArc
 50
0.0
 51
90.0
  0
ARC
  5
105
100
AcDbEntity
  8
s001-#def-active-grp
 62
256
370
0
 48
1.0
  6
Continuous
100
AcDbCircle
 10
60.0000000000000071
 20
0.0
 30
0.0
 40
2.5
100
AcDbArc
 50
-90.0
 51
0.0
  0
ARC
  5
106
100
AcDbEntity
  8
s001-#def-active-grp
 62
256
370
0
 48
1.0
  6
Continuous
100
AcDbCircle
 10
60.0000000000000071
 20
0.0
 30
0.0
 40
2.5
100
AcDbArc
 50
180.0
 51
-90.0
  0
ARC
  5
107
100
AcDbEntity
  8
s001-#def-active-grp
 62
256
370
0
 48
1.0
  6
Continuous
100
AcDbCircle
 10
60.0000000000000071
 20
0.0
 30
0.0
 40
2.5
100
AcDbArc
 50
90.0
 51
180.0
  0
ARC
  5
108
100
AcDbEntity
  8
s001-#def-active-grp
 62
256
370
0
 48
1.0
  6
Continuous
100
AcDbCircle
 10
60.0000000000000071
 20
0.0
 30
0.0
 40
2.5
100
AcDbArc
 50
0.0
 51
90.0
  0
ARC
  5
109
100
AcDbEntity
  8
s001-#def-active-grp
 62
256
370
0
 48
1.0
  6
Continuous
100
AcDbCircle
 10
60.0000000000000071
 20
20.0
 30
0.0
 40
2.5
100
AcDbArc
 50
-90.0
 51
0.0
  0
ARC
  5
10A
100
AcDbEntity
  8
s001-#def-active-grp
 62
256
370
0
 48
1.0
  6
Continuous
100
AcDbCircle
 10
60.0000000000000071
 20
20.0
 30
0.0
 40
2.5
100
AcDbArc
 50
180.0
 51
-90.0
  0
ARC
  5
10B
100
AcDbEntity
  8
s001-#def-active-grp
 62
256
370
0
 48
1.0
  6
Continuous
100
AcDbCircle
 10
60.0000000000000071
 20
20.0
 30
0.0
 40
2.5
100
AcDbArc
 50
90.0
 51
180.0
  0
ARC
  5
10C
100
AcDbEntity
  8
s001-#def-active-grp
 62
256
370
0
 48
1.0
  6
Continuous
100
AcDbCircle
 10
60.0000000000000071
 20
20.0
 30
0.0
 40
2.5000000000000142
100
AcDbArc
 50
0.0
 51
90.0
  0
ARC
  5
10D
100
AcDbEntity
  8
s001-#def-active-grp
 62
256
370
0
 48
1.0
  6
Continuous
100
AcDbCircle
 10
171.4397089525280649
 20
213.019237886466783
 30
0.0
 40
2.5
100
AcDbArc
 50
-90.0
 51
0.0
  0
ARC
  5
10E
100
AcDbEntity
  8
s001-#def-active-grp
 62
256
370
0
 48
1.0
  6
Continuous
100
AcDbCircle
 10
171.4397089525280649
 20
213.019237886466783
 30
0.0
 40
2.5
100
AcDbArc
 50
180.0
 51
-90.0
  0
ARC
  5
10F
100
AcDbEntity
  8
s001-#def-active-grp
 62
256
370
0
 48
1.0
  6
Continuous
100
AcDbCircle
 10
171.4397089525280649
 20
213.019237886466783
 30
0.0
 40
2.5
100
AcDbArc
 50
90.0
 51
180.0
  0
ARC
  5
110
100
AcDbEntity
  8
s001-#def-active-grp
 62
256
370
0
 48
1.0
  6
Continuous
100
AcDbCircle
 10
171.4397089525280649
 20
213.019237886466783
 30
0.0
 40
2.5
100
AcDbArc
 50
0.0
 51
90.0
  0
ARC
  5
111
100
AcDbEntity
  8
s001-#def-active-grp
 62
256
370
0
 48
1.0
  6
Continuous
100
AcDbCircle
 10
188.7602170282168004
 20
223.019237886466783
 30
0.0
 40
2.5
100
AcDbArc
 50
-90.0
 51
0.0
  0
ARC
  5
112
100
AcDbEntity
  8
s001-#def-active-grp
 62
256
370
0
 48
1.0
  6
Continuous
100
AcDbCircle
 10
188.7602170282168004
 20
223.019237886466783
 30
0.0
 40
2.5
100
AcDbArc
 50
180.0
 51
-90.0
  0
ARC
  5
113
100
AcDbEntity
  8
s001-#def-active-grp
 62
256
370
0
 48
1.0
  6
Continuous
100
AcDbCircle
 10
188.7602170282168004
 20
223.019237886466783
 30
0.0
 40
2.5
100
AcDbArc
 50
90.0
 51
180.0
  0
ARC
  5
114
100
AcDbEntity
  8
s001-#def-active-grp
 62
256
370
0
 48
1.0
  6
Continuous
100
AcDbCircle
 10
188.7602170282168004
 20
223.019237886466783
 30
0.0
 40
2.5
100
AcDbArc
 50
0.0
 51
90.0
  0
ARC
  5
115
100
AcDbEntity
  8
s001-#def-active-grp
 62
256
370
0
 48
1.0
  6
Continuous
100
AcDbCircle
 10
178.7602170282168004
 20
240.3397459621555754
 30
0.0
 40
2.5
100
AcDbArc
 50
-90.0
 51
0.0
  0
ARC
  5
116
100
AcDbEntity
  8
s001-#def-active-grp
 62
256
370
0
 48
1.0
  6
Continuous
100
AcDbCircle
 10
178.7602170282168004
 20
240.3397459621555754
 30
0.0
 40
2.5
100
AcDbArc
 50
180.0
 51
-90.0
  0
ARC
  5
117
100
AcDbEntity
  8
s001-#def-active-grp
 62
256
370
0
 48
1.0
  6
Continuous
100
AcDbCircle
 10
178.7602170282168004
 20
240.3397459621555754
 30
0.0
 40
2.4999999999999858
100
AcDbArc
 50
89.9999999999996874
 51
180.0
  0
ARC
  5
118
100
AcDbEntity
  8
s001-#def-active-grp
 62
256
370
0
 48
1.0
  6
Continuous
100
AcDbCircle
 10
178.7602170282169141
 20
240.3397459621555754
 30
0.0
 40
2.5
100
AcDbArc
 50
0.0
 51
90.0000000000003126
  0
ARC
  5
119
100
AcDbEntity
  8
s001-#def-active-grp
 62
256
370
0
 48
1.0
  6
Continuous
100
AcDbCircle
 10
168.7602170282168572
 20
257.6602540378443109
 30
0.0
 40
2.4999999999999858
100
AcDbArc
 50
-90.0000000000003126
 51
0.0
  0
ARC
  5
11A
100
AcDbEntity
  8
s001-#def-active-grp
 62
256
370
0
 48
1.0
  6
Continuous
100
AcDbCircle
 10
168.7602170282168572
 20
257.6602540378443109
 30
0.0
 40
2.5
100
AcDbArc
 50
180.0
 51
-89.9999999999996874
  0
ARC
  5
11B
100
AcDbEntity
  8
s001-#def-active-grp
 62
256
370
0
 48
1.0
  6
Continuous
100
AcDbCircle
 10
168.7602170282168572
 20
257.6602540378443109
 30
0.0
 40
2.5000000000000142
100
AcDbArc
 50
90.0000000000003126
 51
180.0
  0
ARC
  5
11C
100
AcDbEntity
  8
s001-#def-active-grp
 62
256
370
0
 48
1.0
  6
Continuous
100
AcDbCircle
 10
168.7602170282168572
 20
257.6602540378443109
 30
0.0
 40
2.5
100
AcDbArc
 50
0.0
 51
89.9999999999996874
  0
ARC
  5
11D
100
AcDbEntity
  8
s001-#def-active-grp
 62
256
370
0
 48
1.0
  6
Continuous
100
AcDbCircle
 10
158.7602170282168572
 20
274.9807621135331033
 30
0.0
 40
2.5
100
AcDbArc
 50
-90.0
 51
0.0
  0
ARC
  5
11E
100
AcDbEntity
  8
s001-#def-active-grp
 62
256
370
0
 48
1.0
  6
Continuous
100
AcDbCircle
 10
158.7602170282168572
 20
274.9807621135331033
 30
0.0
 40
2.5
100
AcDbArc
 50
180.0
 51
-90.0
  0
ARC
  5
11F
100
AcDbEntity
  8
s001-#def-active-grp
 62
256
370
0
 48
1.0
  6
Continuous
100
AcDbCircle
 10
158.7602170282168572
 20
274.9807621135331033
 30
0.0
 40
2.5
100
AcDbArc
 50
90.0
 51
180.0
  0
ARC
  5
120
100
AcDbEntity
  8
s001-#def-active-grp
 62
256
370
0
 48
1.0
  6
Continuous
100
AcDbCircle
 10
158.7602170282168572
 20
274.9807621135331033
 30
0.0
 40
2.5
100
AcDbArc
 50
0.0
 51
90.0
  0
ARC
  5
121
100
AcDbEntity
  8
s001-#def-active-grp
 62
256
370
0
 48
1.0
  6
Continuous
100
AcDbCircle
 10
141.4397089525280649
 20
264.9807621135331033
 30
0.0
 40
2.5
100
AcDbArc
 50
-90.0
 51
0.0
  0
ARC
  5
122
100
AcDbEntity
  8
s001-#def-active-grp
 62
256
370
0
 48
1.0
  6
Continuous
100
AcDbCircle
 10
141.4397089525280649
 20
264.9807621135331033
 30
0.0
 40
2.5
100
AcDbArc
 50
180.0
 51
-90.0
  0
ARC
  5
123
100
AcDbEntity
  8
s001-#def-active-grp
 62
256
370
0
 48
1.0
  6
Continuous
100
AcDbCircle
 10
141.4397089525280649
 20
264.9807621135331033
 30
0.0
 40
2.5
100
AcDbArc
 50
90.0
 51
180.0
  0
ARC
  5
124
100
AcDbEntity
  8
s001-#def-active-grp
 62
256
370
0
 48
1.0
  6
Continuous
100
AcDbCircle
 10
141.4397089525280649
 20
264.9807621135331033
 30
0.0
 40
2.5
100
AcDbArc
 50
0.0
 51
90.0
  0
ARC
  5
125
100
AcDbEntity
  8
s001-#def-active-grp
 62
256
370
0
 48
1.0
  6
Continuous
100
AcDbCircle
 10
-81.4397089525279796
 20
264.9807621135331601
 30
0.0
 40
2.499999999999972
100
AcDbArc
 50
-90.0000000000006537
 51
0.0
  0
ARC
  5
126
100
AcDbEntity
  8
s001-#def-active-grp
 62
256
370
0
 48
1.0
  6
Continuous
100
AcDbCircle
 10
-81.4397089525279796
 20
264.9807621135331601
 30
0.0
 40
2.5
100
AcDbArc
 50
180.0
 51
-89.9999999999993463
  0
ARC
  5
127
100
AcDbEntity
  8
s001-#def-active-grp
 62
256
370
0
 48
1.0
  6
Continuous
100
AcDbCircle
 10
-81.4397089525279796
 20
264.9807621135331601
 30
0.0
 40
2.500000000000028
100
AcDbArc
 50
90.0000000000006537
 51
180.0
  0
ARC
  5
128
100
AcDbEntity
  8
s001-#def-active-grp
 62
256
370
0
 48
1.0
  6
Continuous
100
AcDbCircle
 10
-81.4397089525279796
 20
264.9807621135331601
 30
0.0
 40
2.5
100
AcDbArc
 50
0.0
 51
89.9999999999993463
  0
ARC
  5
129
100
AcDbEntity
  8
s001-#def-active-grp
 62
256
370
0
 48
1.0
  6
Continuous
100
AcDbCircle
 10
-98.760217028216772
 20
274.9807621135331601
 30
0.0
 40
2.5
100
AcDbArc
 50
-90.0
 51
0.0
  0
ARC
  5
12A
100
AcDbEntity
  8
s001-#def-active-grp
 62
256
370
0
 48
1.0
  6
Continuous
100
AcDbCircle
 10
-98.760217028216772
 20
274.9807621135331601
 30
0.0
 40
2.5
100
AcDbArc
 50
180.0
 51
-90.0
  0
ARC
  5
12B
100
AcDbEntity
  8
s001-#def-active-grp
 62
256
370
0
 48
1.0
  6
Continuous
100
AcDbCircle
 10
-98.760217028216772
 20
274.9807621135331601
 30
0.0
 40
2.5
100
AcDbArc
 50
90.0
 51
180.0
  0
ARC
  5
12C
100
AcDbEntity
  8
s001-#def-active-grp
 62
256
370
0
 48
1.0
  6
Continuous
100
AcDbCircle
 10
-98.760217028216772
 20
274.9807621135331601
 30
0.0
 40
2.4999999999999858
100
AcDbArc
 50
0.0
 51
90.0
  0
ARC
  5
12D
100
AcDbEntity
  8
s001-#def-active-grp
 62
256
370
0
 48
1.0
  6
Continuous
100
AcDbCircle
 10
-108.760217028216772
 20
257.6602540378444246
 30
0.0
 40
2.5
100
AcDbArc
 50
-90.0
 51
0.0
  0
ARC
  5
12E
100
AcDbEntity
  8
s001-#def-active-grp
 62
256
370
0
 48
1.0
  6
Continuous
100
AcDbCircle
 10
-108.760217028216772
 20
257.6602540378444246
 30
0.0
 40
2.5
100
AcDbArc
 50
180.0
 51
-90.0
  0
ARC
  5
12F
100
AcDbEntity
  8
s001-#def-active-grp
 62
256
370
0
 48
1.0
  6
Continuous
100
AcDbCircle
 10
-108.760217028216772
 20
257.6602540378444246
 30
0.0
 40
2.5
100
AcDbArc
 50
90.0
 51
180.0
  0
ARC
  5
130
100
AcDbEntity
  8
s001-#def-active-grp
 62
256
370
0
 48
1.0
  6
Continuous
100
AcDbCircle
 10
-108.760217028216772
 20
257.6602540378444246
 30
0.0
 40
2.5
100
AcDbArc
 50
0.0
 51
90.0
  0
ARC
  5
131
100
AcDbEntity
  8
s001-#def-active-grp
 62
256
370
0
 48
1.0
  6
Continuous
100
AcDbCircle
 10
-118.760217028216772
 20
240.3397459621556607
 30
0.0
 40
2.5
100
AcDbArc
 50
-90.0
 51
0.0
  0
ARC
  5
132
100
AcDbEntity
  8
s001-#def-active-grp
 62
256
370
0
 48
1.0
  6
Continuous
100
AcDbCircle
 10
-118.760217028216772
 20
240.3397459621556607
 30
0.0
 40
2.5
100
AcDbArc
 50
180.0
 51
-90.0
  0
ARC
  5
133
100
AcDbEntity
  8
s001-#def-active-grp
 62
256
370
0
 48
1.0
  6
Continuous
100
AcDbCircle
 10
-118.760217028216772
 20
240.3397459621556607
 30
0.0
 40
2.500000000000028
100
AcDbArc
 50
90.0000000000006537
 51
180.0
  0
ARC
  5
134
100
AcDbEntity
  8
s001-#def-active-grp
 62
256
370
0
 48
1.0
  6
Continuous
100
AcDbCircle
 10
-118.760217028216772
 20
240.3397459621556607
 30
0.0
 40
2.5
100
AcDbArc
 50
0.0
 51
89.9999999999993463
  0
ARC
  5
135
100
AcDbEntity
  8
s001-#def-active-grp
 62
256
370
0
 48
1.0
  6
Continuous
100
AcDbCircle
 10
-128.760217028216772
 20
223.0192378864668967
 30
0.0
 40
2.5
100
AcDbArc
 50
-90.0
 51
0.0
  0
ARC
  5
136
100
AcDbEntity
  8
s001-#def-active-grp
 62
256
370
0
 48
1.0
  6
Continuous
100
AcDbCircle
 10
-128.760217028216772
 20
223.0192378864668967
 30
0.0
 40
2.5
100
AcDbArc
 50
180.0
 51
-90.0
  0
ARC
  5
137
100
AcDbEntity
  8
s001-#def-active-grp
 62
256
370
0
 48
1.0
  6
Continuous
100
AcDbCircle
 10
-128.760217028216772
 20
223.0192378864668967
 30
0.0
 40
2.5
100
AcDbArc
 50
90.0
 51
180.0
  0
ARC
  5
138
100
AcDbEntity
  8
s001-#def-active-grp
 62
256
370
0
 48
1.0
  6
Continuous
100
AcDbCircle
 10
-128.760217028216772
 20
223.0192378864668967
 30
0.0
 40
2.5
100
AcDbArc
 50
0.0
 51
90.0
  0
ARC
  5
139
100
AcDbEntity
  8
s001-#def-active-grp
 62
256
370
0
 48
1.0
  6
Continuous
100
AcDbCircle
 10
-111.4397089525279796
 20
213.0192378864668683
 30
0.0
 40
2.5
100
AcDbArc
 50
-90.0
 51
0.0
  0
ARC
  5
13A
100
AcDbEntity
  8
s001-#def-active-grp
 62
256
370
0
 48
1.0
  6
Continuous
100
AcDbCircle
 10
-111.4397089525279796
 20
213.0192378864668683
 30
0.0
 40
2.5
100
AcDbArc
 50
180.0
 51
-90.0
  0
ARC
  5
13B
100
AcDbEntity
  8
s001-#def-active-grp
 62
256
370
0
 48
1.0
  6
Continuous
100
AcDbCircle
 10
-111.4397089525279796
 20
213.0192378864668683
 30
0.0
 40
2.5
100
AcDbArc
 50
90.0
 51
180.0
  0
ARC
  5
13C
100
AcDbEntity
  8
s001-#def-active-grp
 62
256
370
0
 48
1.0
  6
Continuous
100
AcDbCircle
 10
-111.4397089525279796
 20
213.0192378864668683
 30
0.0
 40
2.5
100
AcDbArc
 50
0.0
 51
90.0
  0
ARC
  5
13D
100
AcDbEntity
  8
s001-#def-active-grp
 62
256
370
0
 48
1.0
  6
Continuous
100
AcDbCircle
 10
30.0000000000000071
 20
20.0
 30
0.0
 40
2.0
100
AcDbArc
 50
-90.0
 51
0.0
  0
ARC
  5
13E
100
AcDbEntity
  8
s001-#def-active-grp
 62
256
370
0
 48
1.0
  6
Continuous
100
AcDbCircle
 10
30.0000000000000071
 20
20.0
 30
0.0
 40
2.0
100
AcDbArc
 50
180.0
 51
-90.0
  0
ARC
  5
13F
100
AcDbEntity
  8
s001-#def-active-grp
 62
256
370
0
 48
1.0
  6
Continuous
100
AcDbCircle
 10
29.9999999999999929
 20
24.9999999999999858
 30
0.0
 40
1.999999999999986
100
AcDbArc
 50
89.9999999999995879
 51
180.0
  0
ARC
  5
140
100
AcDbEntity
  8
s001-#def-active-grp
 62
256
370
0
 48
1.0
  6
Continuous
100
AcDbCircle
 10
30.0000000000000213
 20
24.9999999999999858
 30
0.0
 40
2.0
100
AcDbArc
 50
0.0
 51
90.0000000000004263
  0
ARC
  5
141
100
AcDbEntity
  8
s001-#def-active-grp
 62
256
370
0
 48
1.0
  6
Continuous
100
AcDbCircle
 10
-96.4397089525279796
 20
239.0000000000000284
 30
0.0
 40
2.000000000000004
100
AcDbArc
 50
150.0000000000003126
 51
-119.9999999999998863
  0
ARC
  5
142
100
AcDbEntity
  8
s001-#def-active-grp
 62
256
370
0
 48
1.0
  6
Continuous
100
AcDbCircle
 10
-96.4397089525279796
 20
239.0000000000000284
 30
0.0
 40
2.000000000000016
100
AcDbArc
 50
60.0000000000000782
 51
150.0000000000003126
  0
ARC
  5
143
100
AcDbEntity
  8
s001-#def-active-grp
 62
256
370
0
 48
1.0
  6
Continuous
100
AcDbCircle
 10
-92.1095819336057957
 20
236.5000000000000284
 30
0.0
 40
2.000000000000004
100
AcDbArc
 50
-30.0000000000001386
 51
60.0000000000000782
  0
ARC
  5
144
100
AcDbEntity
  8
s001-#def-active-grp
 62
256
370
0
 48
1.0
  6
Continuous
100
AcDbCircle
 10
-92.1095819336057957
 20
236.5000000000000284
 30
0.0
 40
1.999999999999992
100
AcDbArc
 50
-119.9999999999998863
 51
-30.0000000000001386
  0
ARC
  5
145
100
AcDbEntity
  8
s001-#def-active-grp
 62
256
370
0
 48
1.0
  6
Continuous
100
AcDbCircle
 10
152.109581933605881
 20
236.4999999999999716
 30
0.0
 40
2.000000000000016
100
AcDbArc
 50
-149.9999999999998863
 51
-60.0000000000002771
  0
ARC
  5
146
100
AcDbEntity
  8
s001-#def-active-grp
 62
256
370
0
 48
1.0
  6
Continuous
100
AcDbCircle
 10
152.1095819336058526
 20
236.4999999999999432
 30
0.0
 40
2.000000000000004
100
AcDbArc
 50
119.9999999999995879
 51
-150.0000000000001137
  0
ARC
  5
147
100
AcDbEntity
  8
s001-#def-active-grp
 62
256
370
0
 48
1.0
  6
Continuous
100
AcDbCircle
 10
156.4397089525280649
 20
238.9999999999999432
 30
0.0
 40
2.000000000000016
100
AcDbArc
 50
30.0000000000000782
 51
119.9999999999996874
  0
ARC
  5
148
100
AcDbEntity
  8
s001-#def-active-grp
 62
256
370
0
 48
1.0
  6
Continuous
100
AcDbCircle
 10
156.4397089525280649
 20
238.9999999999999432
 30
0.0
 40
2.000000000000004
100
AcDbArc
 50
-60.0000000000004334
 51
29.9999999999999289
  0
ARC
  5
149
100
AcDbEntity
  8
s001-#def-active-grp
 62
256
370
0
 48
1.0
  6
Continuous
100
AcDbCircle
 10
29.9999999999999929
 20
51.9999999999999858
 30
0.0
 40
2.5000000000000142
100
AcDbArc
 50
-89.9999999999996874
 51
0.0
  0
ARC
  5
14A
100
AcDbEntity
  8
s001-#def-active-grp
 62
256
370
0
 48
1.0
  6
Continuous
100
AcDbCircle
 10
30.0000000000000213
 20
52.0
 30
0.0
 40
2.5000000000000142
100
AcDbArc
 50
-179.9999999999996589
 51
-90.0000000000003126
  0
ARC
  5
14B
100
AcDbEntity
  8
s001-#def-active-grp
 62
256
370
0
 48
1.0
  6
Continuous
100
AcDbCircle
 10
29.9999999999999929
 20
51.9999999999999716
 30
0.0
 40
2.4999999999999858
100
AcDbArc
 50
89.9999999999996874
 51
179.9999999999996589
  0
ARC
  5
14C
100
AcDbEntity
  8
s001-#def-active-grp
 62
256
370
0
 48
1.0
  6
Continuous
100
AcDbCircle
 10
30.0000000000000213
 20
51.9999999999999858
 30
0.0
 40
2.5
100
AcDbArc
 50
0.0
 51
90.0000000000003126
  0
ARC
  5
14D
100
AcDbEntity
  8
s001-#def-active-grp
 62
256
370
0
 48
1.0
  6
Continuous
100
AcDbCircle
 10
128.7268960314260369
 20
222.9999999999999432
 30
0.0
 40
2.5
100
AcDbArc
 50
-90.0
 51
0.0
  0
ARC
  5
14E
100
AcDbEntity
  8
s001-#def-active-grp
 62
256
370
0
 48
1.0
  6
Continuous
100
AcDbCircle
 10
128.7268960314260369
 20
222.9999999999999432
 30
0.0
 40
2.5
100
AcDbArc
 50
180.0
 51
-90.0
  0
ARC
  5
14F
100
AcDbEntity
  8
s001-#def-active-grp
 62
256
370
0
 48
1.0
  6
Continuous
100
AcDbCircle
 10
128.7268960314260369
 20
222.9999999999999432
 30
0.0
 40
2.5
100
AcDbArc
 50
90.0
 51
180.0
  0
ARC
  5
150
100
AcDbEntity
  8
s001-#def-active-grp
 62
256
370
0
 48
1.0
  6
Continuous
100
AcDbCircle
 10
128.7268960314260369
 20
222.9999999999999432
 30
0.0
 40
2.5
100
AcDbArc
 50
0.0
 51
90.0
  0
ARC
  5
151
100
AcDbEntity
  8
s001-#def-active-grp
 62
256
370
0
 48
1.0
  6
Continuous
100
AcDbCircle
 10
-68.72689603142598
 20
223.0
 30
0.0
 40
2.5
100
AcDbArc
 50
-90.0
 51
0.0
  0
ARC
  5
152
100
AcDbEntity
  8
s001-#def-active-grp
 62
256
370
0
 48
1.0
  6
Continuous
100
AcDbCircle
 10
-68.72689603142598
 20
223.0
 30
0.0
 40
2.5
100
AcDbArc
 50
180.0
 51
-90.0
  0
ARC
  5
153
100
AcDbEntity
  8
s001-#def-active-grp
 62
256
370
0
 48
1.0
  6
Continuous
100
AcDbCircle
 10
-68.72689603142598
 20
223.0
 30
0.0
 40
2.5
100
AcDbArc
 50
90.0
 51
180.0
  0
ARC
  5
154
100
AcDbEntity
  8
s001-#def-active-grp
 62
256
370
0
 48
1.0
  6
Continuous
100
AcDbCircle
 10
-68.72689603142598
 20
223.0
 30
0.0
 40
2.5
100
AcDbArc
 50
0.0
 51
90.0
  0
ARC
  5
155
100
AcDbEntity
  8
s001-#def-active-grp
 62
256
370
0
 48
1.0
  6
Continuous
100
AcDbCircle
 10
30.0000000000000071
 20
165.9999999999999716
 30
0.0
 40
2.5
100
AcDbArc
 50
-90.0
 51
0.0
  0
ARC
  5
156
100
AcDbEntity
  8
s001-#def-active-grp
 62
256
370
0
 48
1.0
  6
Continuous
100
AcDbCircle
 10
30.0000000000000071
 20
166.0
 30
0.0
 40
2.5000000000000071
100
AcDbArc
 50
-179.9999999999998863
 51
-90.0
  0
ARC
  5
157
100
AcDbEntity
  8
s001-#def-active-grp
 62
256
370
0
 48
1.0
  6
Continuous
100
AcDbCircle
 10
30.0000000000000071
 20
165.9999999999999716
 30
0.0
 40
2.5
100
AcDbArc
 50
90.0
 51
179.9999999999998863
  0
ARC
  5
158
100
AcDbEntity
  8
s001-#def-active-grp
 62
256
370
0
 48
1.0
  6
Continuous
100
AcDbCircle
 10
30.0000000000000071
 20
165.9999999999999716
 30
0.0
 40
2.5
100
AcDbArc
 50
0.0
 51
90.0
  0
ENDBLK
  5
159
100
AcDbEntity
  8
0
100
AcDbBlockEnd
  0
ENDSEC
  0
SECTION
  2
ENTITIES
  0
INSERT
  5
15A
100
AcDbEntity
  8
0
 62
256
370
-1
 48
1.0
  6
BYLAYER
100
AcDbBlockReference
  2
bottom
 10
330.0
 20
140.0
 30
0.0
 50
180.0
  0
INSERT
  5
15B
100
AcDbEntity
  8
0
 62
256
370
-1
 48
1.0
  6
BYLAYER
100
AcDbBlockReference
  2
top
 10
-20.0
 20
-139.3205080756887355
 30
0.0
  0
ENDSEC
  0
SECTION
  2
OBJECTS
  0
DICTIONARY
  5
C
100
AcDbDictionary
280
0
281
1
  3
ACAD_GROUP
350
D
  3
ACAD_LAYOUT
350
1A
  3
ACAD_MLINESTYLE
350
17
  3
ACAD_PLOTSETTINGS
350
19
  3
ACAD_PLOTSTYLENAME
350
E
  3
AcDbVariableDictionary
350
15C
  3
QCAD_OBJECTS
350
15D
  0
DICTIONARY
  5
D
100
AcDbDictionary
280
0
281
1
  0
ACDBDICTIONARYWDFLT
  5
E
100
AcDbDictionary
281
1
  3
Normal
350
F
100
AcDbDictionaryWithDefault
340
F
  0
ACDBPLACEHOLDER
  5
F
  0
DICTIONARY
  5
17
100
AcDbDictionary
280
0
281
1
  3
Standard
350
18
  0
MLINESTYLE
  5
18
100
AcDbMlineStyle
  2
STANDARD
 70
0
  3

 62
256
 51
90.0
 52
90.0
 71
2
 49
0.5
 62
256
  6
BYLAYER
 49
-0.5
 62
256
  6
BYLAYER
  0
DICTIONARY
  5
19
100
AcDbDictionary
280
0
281
1
  0
DICTIONARY
  5
1A
100
AcDbDictionary
281
1
  3
Layout1
350
1E
  3
Layout2
350
26
  3
Model
350
22
  0
LAYOUT
  5
1E
100
AcDbPlotSettings
  1

  2
none_device
  4

  6

 40
0.0
 41
0.0
 42
0.0
 43
0.0
 44
0.0
 45
0.0
 46
0.0
 47
0.0
 48
0.0
 49
0.0
140
0.0
141
0.0
142
1.0
143
1.0
 70
688
 72
0
 73
0
 74
5
  7

 75
16
147
1.0
148
0.0
149
0.0
100
AcDbLayout
  1
Layout1
 70
1
 71
1
 10
0.0
 20
0.0
 11
420.0
 21
297.0
 12
0.0
 22
0.0
 32
0.0
 14
100000000000000000000.0
 24
100000000000000000000.0
 34
100000000000000000000.0
 15
-100000000000000000000.0
 25
-100000000000000000000.0
 35
-100000000000000000000.0
146
0.0
 13
0.0
 23
0.0
 33
0.0
 16
1.0
 26
0.0
 36
0.0
 17
0.0
 27
1.0
 37
0.0
 76
0
330
1B
  0
LAYOUT
  5
22
100
AcDbPlotSettings
  1

  2
none_device
  4

  6

 40
0.0
 41
0.0
 42
0.0
 43
0.0
 44
0.0
 45
0.0
 46
0.0
 47
0.0
 48
0.0
 49
0.0
140
0.0
141
0.0
142
1.0
143
1.0
 70
1712
 72
0
 73
0
 74
0
  7

 75
0
147
1.0
148
0.0
149
0.0
100
AcDbLayout
  1
Model
 70
1
 71
0
 10
0.0
 20
0.0
 11
12.0
 21
9.0
 12
0.0
 22
0.0
 32
0.0
 14
0.0
 24
0.0
 34
0.0
 15
0.0
 25
0.0
 35
0.0
146
0.0
 13
0.0
 23
0.0
 33
0.0
 16
1.0
 26
0.0
 36
0.0
 17
0.0
 27
1.0
 37
0.0
 76
0
330
1F
  0
LAYOUT
  5
26
100
AcDbPlotSettings
  1

  2
none_device
  4

  6

 40
0.0
 41
0.0
 42
0.0
 43
0.0
 44
0.0
 45
0.0
 46
0.0
 47
0.0
 48
0.0
 49
0.0
140
0.0
141
0.0
142
1.0
143
1.0
 70
688
 72
0
 73
0
 74
5
  7

 75
16
147
1.0
148
0.0
149
0.0
100
AcDbLayout
  1
Layout2
 70
1
 71
2
 10
0.0
 20
0.0
 11
12.0
 21
9.0
 12
0.0
 22
0.0
 32
0.0
 14
0.0
 24
0.0
 34
0.0
 15
0.0
 25
0.0
 35
0.0
146
0.0
 13
0.0
 23
0.0
 33
0.0
 16
1.0
 26
0.0
 36
0.0
 17
0.0
 27
1.0
 37
0.0
 76
0
330
23
  0
DICTIONARY
  5
15C
100
AcDbDictionary
281
1
  3
DIMASSOC
350
15F
  3
HIDETEXT
350
15E
  0
DICTIONARYVAR
  5
15E
100
DictionaryVariables
280
0
  1
2
  0
DICTIONARYVAR
  5
15F
100
DictionaryVariables
280
0
  1
1
  0
DICTIONARY
  5
15D
100
AcDbDictionary
281
1
  3
ColorSettings/BackgroundColor
350
160
  3
ColorSettings/ColorMode
350
161
  3
Grid/DisplayGrid00
350
162
  3
Grid/DisplayGrid01
350
163
  3
Grid/DisplayGrid02
350
164
  3
Grid/DisplayGrid03
350
165
  3
Grid/GridSpacingX00
350
166
  3
Grid/GridSpacingX01
350
167
  3
Grid/GridSpacingX02
350
168
  3
Grid/GridSpacingX03
350
169
  3
Grid/GridSpacingY00
350
16A
  3
Grid/GridSpacingY01
350
16B
  3
Grid/GridSpacingY02
350
16C
  3
Grid/GridSpacingY03
350
16D
  3
Grid/IsometricGrid00
350
16E
  3
Grid/IsometricGrid01
350
16F
  3
Grid/IsometricGrid02
350
170
  3
Grid/IsometricGrid03
350
171
  3
Grid/IsometricProjection00
350
172
  3
Grid/IsometricProjection01
350
173
  3
Grid/IsometricProjection02
350
174
  3
Grid/IsometricProjection03
350
175
  3
Grid/MetaGridSpacingX00
350
176
  3
Grid/MetaGridSpacingX01
350
177
  3
Grid/MetaGridSpacingX02
350
178
  3
Grid/MetaGridSpacingX03
350
179
  3
Grid/MetaGridSpacingY00
350
17A
  3
Grid/MetaGridSpacingY01
350
17B
  3
Grid/MetaGridSpacingY02
350
17C
  3
Grid/MetaGridSpacingY03
350
17D
  3
MultiPageSettings/Columns
350
17E
  3
MultiPageSettings/GlueMarginsBottom
350
17F
  3
MultiPageSettings/GlueMarginsLeft
350
180
  3
MultiPageSettings/GlueMarginsRight
350
181
  3
MultiPageSettings/GlueMarginsTop
350
182
  3
MultiPageSettings/PrintCropMarks
350
183
  3
MultiPageSettings/Rows
350
184
  3
PageSettings/OffsetX
350
185
  3
PageSettings/OffsetY
350
186
  3
PageSettings/PageOrientation
350
187
  3
PageSettings/PaperHeight
350
188
  3
PageSettings/PaperWidth
350
189
  3
PageSettings/Scale
350
18A
  3
PageSettings/ShowPaperBorders
350
18B
  3
PageTagSettings/EnablePageTags
350
18C
  3
PageTagSettings/TagAlignment
350
18D
  3
PageTagSettings/TagFont
350
18E
  3
PageTagSettings/TagPosition
350
18F
  3
QCADVersion
350
190
  3
UnitSettings/PaperUnit
350
191
  3
ViewportCenter
350
192
  3
ViewportHeight
350
193
  3
ViewportWidth
350
194
  0
XRECORD
  5
160
330
15D
100
AcDbXrecord
280
1
1000
\U+0411\U+0435\U+043b\U+044b\U+0439
  0
XRECORD
  5
161
330
15D
100
AcDbXrecord
280
1
1000
FullColor
  0
XRECORD
  5
162
330
15D
100
AcDbXrecord
280
1
290
1
  0
XRECORD
  5
163
330
15D
100
AcDbXrecord
280
1
290
1
  0
XRECORD
  5
164
330
15D
100
AcDbXrecord
280
1
290
1
  0
XRECORD
  5
165
330
15D
100
AcDbXrecord
280
1
290
1
  0
XRECORD
  5
166
330
15D
100
AcDbXrecord
280
1
1000
auto
  0
XRECORD
  5
167
330
15D
100
AcDbXrecord
280
1
1000
auto
  0
XRECORD
  5
168
330
15D
100
AcDbXrecord
280
1
1000
auto
  0
XRECORD
  5
169
330
15D
100
AcDbXrecord
280
1
1000
auto
  0
XRECORD
  5
16A
330
15D
100
AcDbXrecord
280
1
1000
auto
  0
XRECORD
  5
16B
330
15D
100
AcDbXrecord
280
1
1000
auto
  0
XRECORD
  5
16C
330
15D
100
AcDbXrecord
280
1
1000
auto
  0
XRECORD
  5
16D
330
15D
100
AcDbXrecord
280
1
1000
auto
  0
XRECORD
  5
16E
330
15D
100
AcDbXrecord
280
1
290
0
  0
XRECORD
  5
16F
330
15D
100
AcDbXrecord
280
1
290
0
  0
XRECORD
  5
170
330
15D
100
AcDbXrecord
280
1
290
0
  0
XRECORD
  5
171
330
15D
100
AcDbXrecord
280
1
290
0
  0
XRECORD
  5
172
330
15D
100
AcDbXrecord
280
1
 90
65537
  0
XRECORD
  5
173
330
15D
100
AcDbXrecord
280
1
 90
65537
  0
XRECORD
  5
174
330
15D
100
AcDbXrecord
280
1
 90
65537
  0
XRECORD
  5
175
330
15D
100
AcDbXrecord
280
1
 90
65537
  0
XRECORD
  5
176
330
15D
100
AcDbXrecord
280
1
1000
auto
  0
XRECORD
  5
177
330
15D
100
AcDbXrecord
280
1
1000
auto
  0
XRECORD
  5
178
330
15D
100
AcDbXrecord
280
1
1000
auto
  0
XRECORD
  5
179
330
15D
100
AcDbXrecord
280
1
1000
auto
  0
XRECORD
  5
17A
330
15D
100
AcDbXrecord
280
1
1000
auto
  0
XRECORD
  5
17B
330
15D
100
AcDbXrecord
280
1
1000
auto
  0
XRECORD
  5
17C
330
15D
100
AcDbXrecord
280
1
1000
auto
  0
XRECORD
  5
17D
330
15D
100
AcDbXrecord
280
1
1000
auto
  0
XRECORD
  5
17E
330
15D
100
AcDbXrecord
280
1
 90
1
  0
XRECORD
  5
17F
330
15D
100
AcDbXrecord
280
1
 40
10.0
  0
XRECORD
  5
180
330
15D
100
AcDbXrecord
280
1
 40
10.0
  0
XRECORD
  5
181
330
15D
100
AcDbXrecord
280
1
 40
10.0
  0
XRECORD
  5
182
330
15D
100
AcDbXrecord
280
1
 40
10.0
  0
XRECORD
  5
183
330
15D
100
AcDbXrecord
280
1
290
0
  0
XRECORD
  5
184
330
15D
100
AcDbXrecord
280
1
 90
1
  0
XRECORD
  5
185
330
15D
100
AcDbXrecord
280
1
 40
0.0
  0
XRECORD
  5
186
330
15D
100
AcDbXrecord
280
1
 40
0.0
  0
XRECORD
  5
187
330
15D
100
AcDbXrecord
280
1
1000
Portrait
  0
XRECORD
  5
188
330
15D
100
AcDbXrecord
280
1
 40
297.0
  0
XRECORD
  5
189
330
15D
100
AcDbXrecord
280
1
 40
210.0
  0
XRECORD
  5
18A
330
15D
100
AcDbXrecord
280
1
1000
1:1
  0
XRECORD
  5
18B
330
15D
100
AcDbXrecord
280
1
290
1
  0
XRECORD
  5
18C
330
15D
100
AcDbXrecord
280
1
290
0
  0
XRECORD
  5
18D
330
15D
100
AcDbXrecord
280
1
1000
Inside
  0
XRECORD
  5
18E
330
15D
100
AcDbXrecord
280
1
1000
Arial,10,-1,5,50,0,0,0,0,0
  0
XRECORD
  5
18F
330
15D
100
AcDbXrecord
280
1
1000
TopLeft
  0
XRECORD
  5
190
330
15D
100
AcDbXrecord
280
1
1000
3.26.4.2
  0
XRECORD
  5
191
330
15D
100
AcDbXrecord
280
1
 90
4
  0
XRECORD
  5
193
330
15D
100
AcDbXrecord
280
1
 40
965.0787125192289295
  0
XRECORD
  5
194
330
15D
100
AcDbXrecord
280
1
 40
1524.6531766517750839
  0
ENDSEC
  0
EOF
