999
dxflib 3.17.0.0
  0
SECTION
  2
HEADER
  9
$ACADVER
  1
AC1015
  9
$HANDSEED
  5
FFFF
  9
$ANGBASE
 50
0.0
  9
$ANGDIR
 70
0
  9
$ATTMODE
 70
0
  9
$AUNITS
 70
0
  9
$AUPREC
 70
2
  9
$CECOLOR
 62
256
  9
$CELTSCALE
 40
1.0
  9
$CHAMFERA
 40
0.0
  9
$CHAMFERB
 40
0.0
  9
$CHAMFERC
 40
0.0
  9
$CHAMFERD
 40
0.0
  9
$CMLJUST
 70
0
  9
$CMLSCALE
 40
20.0
  9
$DIMADEC
 70
0
  9
$DIMALT
 70
0
  9
$DIMALTD
 70
3
  9
$DIMALTF
 40
0.03937
  9
$DIMALTRND
 40
0.0
  9
$DIMALTTD
 70
3
  9
$DIMALTTZ
 70
0
  9
$DIMALTU
 70
2
  9
$DIMALTZ
 70
0
  9
$DIMAPOST
  1

  9
$DIMASZ
 40
2.5
  9
$DIMATFIT
 70
3
  9
$DIMAUNIT
 70
0
  9
$DIMAZIN
 70
0
  9
$DIMBLK
  1

  9
$DIMBLK1
  1

  9
$DIMBLK2
  1

  9
$DIMCEN
 40
2.5
  9
$DIMCLRD
 70
0
  9
$DIMCLRE
 70
0
  9
$DIMDEC
 70
2
  9
$DIMDLE
 40
0.0
  9
$DIMDLI
 40
3.75
  9
$DIMDSEP
 70
44
  9
$DIMEXE
 40
1.25
  9
$DIMEXO
 40
0.625
  9
$DIMFRAC
 70
0
  9
$DIMGAP
 40
0.625
  9
$DIMJUST
 70
0
  9
$DIMLDRBLK
  1
STANDARD
  9
$DIMLFAC
 40
1.0
  9
$DIMLIM
 70
0
  9
$DIMLUNIT
 70
2
  9
$DIMLWD
 70
-2
  9
$DIMLWE
 70
-2
  9
$DIMPOST
  1

  9
$DIMRND
 40
0.0
  9
$DIMSAH
 70
0
  9
$DIMSCALE
 40
1.0
  9
$DIMSD1
 70
0
  9
$DIMSD2
 70
0
  9
$DIMSE1
 70
0
  9
$DIMSE2
 70
0
  9
$DIMSOXD
 70
0
  9
$DIMTAD
 70
1
  9
$DIMTDEC
 70
2
  9
$DIMTFAC
 40
1.0
  9
$DIMTIH
 70
0
  9
$DIMTIX
 70
0
  9
$DIMTM
 40
0.0
  9
$DIMTOFL
 70
1
  9
$DIMTOH
 70
0
  9
$DIMTOL
 70
0
  9
$DIMTOLJ
 70
0
  9
$DIMTP
 40
0.0
  9
$DIMTSZ
 40
0.0
  9
$DIMTVP
 40
0.0
  9
$DIMTXSTY
  7
STANDARD
  9
$DIMTXT
 40
2.5
  9
$DIMTZIN
 70
8
  9
$DIMUPT
 70
0
  9
$DIMZIN
 70
8
  9
$DISPSILH
 70
0
  9
$DWGCODEPAGE
  3
ANSI_1252
  9
$ELEVATION
 40
0.0
  9
$EXTMAX
 10
-100000000000000000000.0
 20
-100000000000000000000.0
 30
-100000000000000000000.0
  9
$EXTMIN
 10
100000000000000000000.0
 20
100000000000000000000.0
 30
100000000000000000000.0
  9
$FILLETRAD
 40
0.0
  9
$FILLMODE
 70
1
  9
$INSBASE
 10
0.0
 20
0.0
 30
0.0
  9
$INSUNITS
 70
0
  9
$LIMCHECK
 70
0
  9
$LIMMAX
 10
420.0
 20
297.0
  9
$LIMMIN
 10
0.0
 20
0.0
  9
$LTSCALE
 40
1.0
  9
$LUNITS
 70
2
  9
$LUPREC
 70
4
  9
$MAXACTVP
 70
64
  9
$MEASUREMENT
 70
1
  9
$MIRRTEXT
 70
0
  9
$ORTHOMODE
 70
0
  9
$PDMODE
 70
34
  9
$PDSIZE
 40
0.0
  9
$PELEVATION
 40
0.0
  9
$PEXTMAX
 10
0.0
 20
0.0
 30
0.0
  9
$PEXTMIN
 10
0.0
 20
0.0
 30
0.0
  9
$PINSBASE
 10
0.0
 20
0.0
 30
0.0
  9
$PLIMCHECK
 70
0
  9
$PLIMMAX
 10
297.0
 20
210.0
  9
$PLIMMIN
 10
0.0
 20
0.0
  9
$PLINEGEN
 70
0
  9
$PLINEWID
 40
0.0
  9
$PROXYGRAPHICS
 70
1
  9
$PSLTSCALE
 70
1
  9
$PUCSNAME
  2

  9
$PUCSORG
 10
0.0
 20
0.0
 30
0.0
  9
$PUCSXDIR
 10
1.0
 20
0.0
 30
0.0
  9
$PUCSYDIR
 10
0.0
 20
1.0
 30
0.0
  9
$QTEXTMODE
 70
0
  9
$REGENMODE
 70
1
  9
$SHADEDGE
 70
3
  9
$SHADEDIF
 70
70
  9
$SKETCHINC
 40
1.0
  9
$SKPOLY
 70
0
  9
$SPLFRAME
 70
0
  9
$SPLINESEGS
 70
8
  9
$SPLINETYPE
 70
2
  9
$SURFTAB1
 70
6
  9
$SURFTAB2
 70
6
  9
$SURFTYPE
 70
6
  9
$SURFU
 70
6
  9
$SURFV
 70
6
  9
$TEXTSIZE
 40
2.5
  9
$TEXTSTYLE
  7
STANDARD
  9
$THICKNESS
 40
0.0
  9
$TILEMODE
 70
1
  9
$TRACEWID
 40
15.6799999999999997
  9
$TREEDEPTH
 70
3020
  9
$UCSNAME
  2

  9
$UCSORG
 10
0.0
 20
0.0
 30
0.0
  9
$UCSXDIR
 10
1.0
 20
0.0
 30
0.0
  9
$UCSYDIR
 10
0.0
 20
1.0
 30
0.0
  9
$UNITMODE
 70
0
  9
$USERI1
 70
0
  9
$USERI2
 70
0
  9
$USERI3
 70
0
  9
$USERI4
 70
0
  9
$USERI5
 70
0
  9
$USERR1
 40
0.0
  9
$USERR2
 40
0.0
  9
$USERR3
 40
0.0
  9
$USERR4
 40
0.0
  9
$USERR5
 40
0.0
  9
$USRTIMER
 70
1
  9
$VISRETAIN
 70
1
  0
ENDSEC
  0
SECTION
  2
TABLES
  0
TABLE
  2
VPORT
  5
8
100
AcDbSymbolTable
 70
1
  0
VPORT
  5
30
100
AcDbSymbolTableRecord
100
AcDbViewportTableRecord
  2
*Active
 70
0
 10
0.0
 20
0.0
 11
1.0
 21
1.0
 12
286.3055555555554861
 22
148.5
 13
0.0
 23
0.0
 14
10.0
 24
10.0
 15
10.0
 25
10.0
 16
0.0
 26
0.0
 36
1.0
 17
0.0
 27
0.0
 37
0.0
 40
297.0
 41
1.92798353909465
 42
50.0
 43
0.0
 44
0.0
 50
0.0
 51
0.0
 71
0
 72
100
 73
1
 74
3
 75
1
 76
1
 77
0
 78
0
281
0
 65
1
110
0.0
120
0.0
130
0.0
111
1.0
121
0.0
131
0.0
112
0.0
122
1.0
132
0.0
 79
0
146
0.0
  0
ENDTAB
  0
TABLE
  2
LTYPE
  5
5
100
AcDbSymbolTable
 70
41
  0
LTYPE
  5
16
100
AcDbSymbolTableRecord
100
AcDbLinetypeTableRecord
  2
Continuous
 70
0
  3
Solid line
 72
65
 73
0
 40
0.0
  0
LTYPE
  5
31
100
AcDbSymbolTableRecord
100
AcDbLinetypeTableRecord
  2
CENTERX2
 70
0
  3
Center (2x) ________  __  ________  __  _____
 72
65
 73
4
 40
101.6000000000000085
 49
63.5
 74
0
 49
-12.6999999999999993
 74
0
 49
12.6999999999999993
 74
0
 49
-12.6999999999999993
 74
0
  0
LTYPE
  5
32
100
AcDbSymbolTableRecord
100
AcDbLinetypeTableRecord
  2
DOTX2
 70
0
  3
Dot (2x) .  .  .  .  .  .  .  .  .  .  .  .  .  .
 72
65
 73
2
 40
12.6999999999999993
 49
0.0
 74
0
 49
-12.6999999999999993
 74
0
  0
LTYPE
  5
33
100
AcDbSymbolTableRecord
100
AcDbLinetypeTableRecord
  2
DASHDOT2
 70
0
  3
Dash dot (.5x) _._._._._._._._._._._._._._._.
 72
65
 73
4
 40
12.6999999999999993
 49
6.3499999999999996
 74
0
 49
-3.1749999999999998
 74
0
 49
0.0
 74
0
 49
-3.1749999999999998
 74
0
  0
LTYPE
  5
34
100
AcDbSymbolTableRecord
100
AcDbLinetypeTableRecord
  2
ACAD_ISO04W100
 70
0
  3
ISO long-dash dot ____ . ____ . ____ . ____ . _
 72
65
 73
4
 40
30.0
 49
24.0
 74
0
 49
-3.0
 74
0
 49
0.0
 74
0
 49
-3.0
 74
0
  0
LTYPE
  5
15
100
AcDbSymbolTableRecord
100
AcDbLinetypeTableRecord
  2
ByLayer
 70
0
  3

 72
65
 73
0
 40
0.0
  0
LTYPE
  5
35
100
AcDbSymbolTableRecord
100
AcDbLinetypeTableRecord
  2
DIVIDE
 70
0
  3

 72
65
 73
6
 40
4.0
 49
1.0
 74
0
 49
-0.95
 74
0
 49
0.1
 74
0
 49
-0.8999999999999999
 74
0
 49
0.1
 74
0
 49
-0.95
 74
0
  0
LTYPE
  5
36
100
AcDbSymbolTableRecord
100
AcDbLinetypeTableRecord
  2
DIVIDE2
 70
0
  3
Divide (.5x) __..__..__..__..__..__..__..__.._
 72
65
 73
6
 40
15.875
 49
6.3499999999999996
 74
0
 49
-3.1749999999999998
 74
0
 49
0.0
 74
0
 49
-3.1749999999999998
 74
0
 49
0.0
 74
0
 49
-3.1749999999999998
 74
0
  0
LTYPE
  5
37
100
AcDbSymbolTableRecord
100
AcDbLinetypeTableRecord
  2
DIVIDEX2
 70
0
  3
Divide (2x) ________  .  .  ________  .  .  _
 72
65
 73
6
 40
63.5
 49
25.3999999999999986
 74
0
 49
-12.6999999999999993
 74
0
 49
0.0
 74
0
 49
-12.6999999999999993
 74
0
 49
0.0
 74
0
 49
-12.6999999999999993
 74
0
  0
LTYPE
  5
38
100
AcDbSymbolTableRecord
100
AcDbLinetypeTableRecord
  2
DOT2
 70
0
  3
Dot (.5x) ........................................
 72
65
 73
2
 40
3.1749999999999998
 49
0.0
 74
0
 49
-3.1749999999999998
 74
0
  0
LTYPE
  5
39
100
AcDbSymbolTableRecord
100
AcDbLinetypeTableRecord
  2
PHANTOM
 70
0
  3
Phantom ______  __  __  ______  __  __  ______ 
 72
65
 73
6
 40
63.5000000000000071
 49
31.75
 74
0
 49
-6.3499999999999996
 74
0
 49
6.3499999999999996
 74
0
 49
-6.3499999999999996
 74
0
 49
6.3499999999999996
 74
0
 49
-6.3499999999999996
 74
0
  0
LTYPE
  5
3A
100
AcDbSymbolTableRecord
100
AcDbLinetypeTableRecord
  2
ACAD_ISO03W100
 70
0
  3
ISO dash space __    __    __    __    __    __
 72
65
 73
2
 40
30.0
 49
12.0
 74
0
 49
-18.0
 74
0
  0
LTYPE
  5
3B
100
AcDbSymbolTableRecord
100
AcDbLinetypeTableRecord
  2
ACAD_ISO06W100
 70
0
  3
ISO long-dash triple-dot ____ ... ____ ... ____
 72
65
 73
8
 40
36.0
 49
24.0
 74
0
 49
-3.0
 74
0
 49
0.0
 74
0
 49
-3.0
 74
0
 49
0.0
 74
0
 49
-3.0
 74
0
 49
0.0
 74
0
 49
-3.0
 74
0
  0
LTYPE
  5
3C
100
AcDbSymbolTableRecord
100
AcDbLinetypeTableRecord
  2
PHANTOMX2
 70
0
  3
Phantom (2x) ____________    ____    ____   _
 72
65
 73
6
 40
127.0000000000000142
 49
63.5
 74
0
 49
-12.6999999999999993
 74
0
 49
12.6999999999999993
 74
0
 49
-12.6999999999999993
 74
0
 49
12.6999999999999993
 74
0
 49
-12.6999999999999993
 74
0
  0
LTYPE
  5
3D
100
AcDbSymbolTableRecord
100
AcDbLinetypeTableRecord
  2
ACAD_ISO15W100
 70
0
  3
ISO double-dash triple-dot __ __ . . . __ __ . .
 72
65
 73
10
 40
39.0
 49
12.0
 74
0
 49
-3.0
 74
0
 49
12.0
 74
0
 49
-3.0
 74
0
 49
0.0
 74
0
 49
-3.0
 74
0
 49
0.0
 74
0
 49
-3.0
 74
0
 49
0.0
 74
0
 49
-3.0
 74
0
  0
LTYPE
  5
3E
100
AcDbSymbolTableRecord
100
AcDbLinetypeTableRecord
  2
DASHDOT
 70
0
  3

 72
65
 73
4
 40
3.0
 49
1.0
 74
0
 49
-0.95
 74
0
 49
0.1
 74
0
 49
-0.95
 74
0
  0
LTYPE
  5
3F
100
AcDbSymbolTableRecord
100
AcDbLinetypeTableRecord
  2
ACAD_ISO08W100
 70
0
  3
ISO long-dash short-dash ____ __ ____ __ ____ _
 72
65
 73
4
 40
36.0
 49
24.0
 74
0
 49
-3.0
 74
0
 49
6.0
 74
0
 49
-3.0
 74
0
  0
LTYPE
  5
40
100
AcDbSymbolTableRecord
100
AcDbLinetypeTableRecord
  2
BORDER
 70
0
  3
Border __ __ . __ __ . __ __ . __ __ . __ __ .
 72
65
 73
6
 40
44.4499999999999957
 49
12.6999999999999993
 74
0
 49
-6.3499999999999996
 74
0
 49
12.6999999999999993
 74
0
 49
-6.3499999999999996
 74
0
 49
0.0
 74
0
 49
-6.3499999999999996
 74
0
  0
LTYPE
  5
41
100
AcDbSymbolTableRecord
100
AcDbLinetypeTableRecord
  2
DOT
 70
0
  3

 72
65
 73
2
 40
1.2000000000000002
 49
1.1000000000000001
 74
0
 49
0.1
 74
0
  0
LTYPE
  5
42
100
AcDbSymbolTableRecord
100
AcDbLinetypeTableRecord
  2
HIDDEN2
 70
0
  3
Hidden (.5x) _ _ _ _ _ _ _ _ _ _ _ _ _ _ _ _ _ 
 72
65
 73
2
 40
4.7624999999999993
 49
3.1749999999999998
 74
0
 49
-1.5874999999999999
 74
0
  0
LTYPE
  5
43
100
AcDbSymbolTableRecord
100
AcDbLinetypeTableRecord
  2
HIDDENX2
 70
0
  3
Hidden (2x) ____ ____ ____ ____ ____ ____ ____ 
 72
65
 73
2
 40
19.0499999999999972
 49
12.6999999999999993
 74
0
 49
-6.3499999999999996
 74
0
  0
LTYPE
  5
44
100
AcDbSymbolTableRecord
100
AcDbLinetypeTableRecord
  2
ACAD_ISO05W100
 70
0
  3
ISO long-dash double-dot ____ .. ____ .. ____ . 
 72
65
 73
6
 40
33.0
 49
24.0
 74
0
 49
-3.0
 74
0
 49
0.0
 74
0
 49
-3.0
 74
0
 49
0.0
 74
0
 49
-3.0
 74
0
  0
LTYPE
  5
45
100
AcDbSymbolTableRecord
100
AcDbLinetypeTableRecord
  2
PHANTOM2
 70
0
  3
Phantom (.5x) ___ _ _ ___ _ _ ___ _ _ ___ _ _
 72
65
 73
6
 40
31.7500000000000036
 49
15.875
 74
0
 49
-3.1749999999999998
 74
0
 49
3.1749999999999998
 74
0
 49
-3.1749999999999998
 74
0
 49
3.1749999999999998
 74
0
 49
-3.1749999999999998
 74
0
  0
LTYPE
  5
46
100
AcDbSymbolTableRecord
100
AcDbLinetypeTableRecord
  2
ACAD_ISO11W100
 70
0
  3
ISO double-dash dot __ __ . __ __ . __ __ . __ _
 72
65
 73
6
 40
33.0
 49
12.0
 74
0
 49
-3.0
 74
0
 49
12.0
 74
0
 49
-3.0
 74
0
 49
0.0
 74
0
 49
-3.0
 74
0
  0
LTYPE
  5
47
100
AcDbSymbolTableRecord
100
AcDbLinetypeTableRecord
  2
DASHDOTX2
 70
0
  3
Dash dot (2x) ____  .  ____  .  ____  .  ___
 72
65
 73
4
 40
50.7999999999999972
 49
25.3999999999999986
 74
0
 49
-12.6999999999999993
 74
0
 49
0.0
 74
0
 49
-12.6999999999999993
 74
0
  0
LTYPE
  5
14
100
AcDbSymbolTableRecord
100
AcDbLinetypeTableRecord
  2
ByBlock
 70
0
  3

 72
65
 73
0
 40
0.0
  0
LTYPE
  5
48
100
AcDbSymbolTableRecord
100
AcDbLinetypeTableRecord
  2
ACAD_ISO07W100
 70
0
  3
ISO dot . . . . . . . . . . . . . . . . . . . . 
 72
65
 73
2
 40
3.0
 49
0.0
 74
0
 49
-3.0
 74
0
  0
LTYPE
  5
49
100
AcDbSymbolTableRecord
100
AcDbLinetypeTableRecord
  2
ACAD_ISO09W100
 70
0
  3
ISO long-dash double-short-dash ____ __ __ ____
 72
65
 73
6
 40
45.0
 49
24.0
 74
0
 49
-3.0
 74
0
 49
6.0
 74
0
 49
-3.0
 74
0
 49
6.0
 74
0
 49
-3.0
 74
0
  0
LTYPE
  5
4A
100
AcDbSymbolTableRecord
100
AcDbLinetypeTableRecord
  2
CENTER2
 70
0
  3
Center (.5x) ___ _ ___ _ ___ _ ___ _ ___ _ ___
 72
65
 73
4
 40
28.5750000000000028
 49
19.0500000000000007
 74
0
 49
-3.1749999999999998
 74
0
 49
3.1749999999999998
 74
0
 49
-3.1749999999999998
 74
0
  0
LTYPE
  5
4B
100
AcDbSymbolTableRecord
100
AcDbLinetypeTableRecord
  2
HIDDEN
 70
0
  3
Hidden __ __ __ __ __ __ __ __ __ __ __ __ __ __
 72
65
 73
2
 40
9.5249999999999986
 49
6.3499999999999996
 74
0
 49
-3.1749999999999998
 74
0
  0
LTYPE
  5
4C
100
AcDbSymbolTableRecord
100
AcDbLinetypeTableRecord
  2
ACAD_ISO12W100
 70
0
  3
ISO dash double-dot __ . . __ . . __ . . __ . . 
 72
65
 73
6
 40
21.0
 49
12.0
 74
0
 49
-3.0
 74
0
 49
0.0
 74
0
 49
-3.0
 74
0
 49
0.0
 74
0
 49
-3.0
 74
0
  0
LTYPE
  5
4D
100
AcDbSymbolTableRecord
100
AcDbLinetypeTableRecord
  2
DASHEDX2
 70
0
  3

 72
65
 73
2
 40
3.0
 49
2.0
 74
0
 49
-1.0
 74
0
  0
LTYPE
  5
4E
100
AcDbSymbolTableRecord
100
AcDbLinetypeTableRecord
  2
CENTER
 70
0
  3
Center ____ _ ____ _ ____ _ ____ _ ____ _ ____
 72
65
 73
4
 40
50.8000000000000043
 49
31.75
 74
0
 49
-6.3499999999999996
 74
0
 49
6.3499999999999996
 74
0
 49
-6.3499999999999996
 74
0
  0
LTYPE
  5
4F
100
AcDbSymbolTableRecord
100
AcDbLinetypeTableRecord
  2
DASHED
 70
0
  3

 72
65
 73
2
 40
2.0
 49
1.0
 74
0
 49
-1.0
 74
0
  0
LTYPE
  5
50
100
AcDbSymbolTableRecord
100
AcDbLinetypeTableRecord
  2
ACAD_ISO10W100
 70
0
  3
ISO dash dot __ . __ . __ . __ . __ . __ . __ . 
 72
65
 73
4
 40
18.0
 49
12.0
 74
0
 49
-3.0
 74
0
 49
0.0
 74
0
 49
-3.0
 74
0
  0
LTYPE
  5
51
100
AcDbSymbolTableRecord
100
AcDbLinetypeTableRecord
  2
BORDER2
 70
0
  3
Border (.5x) __.__.__.__.__.__.__.__.__.__.__.
 72
65
 73
6
 40
22.2249999999999979
 49
6.3499999999999996
 74
0
 49
-3.1749999999999998
 74
0
 49
6.3499999999999996
 74
0
 49
-3.1749999999999998
 74
0
 49
0.0
 74
0
 49
-3.1749999999999998
 74
0
  0
LTYPE
  5
52
100
AcDbSymbolTableRecord
100
AcDbLinetypeTableRecord
  2
ACAD_ISO13W100
 70
0
  3
ISO double-dash double-dot __ __ . . __ __ . . _
 72
65
 73
8
 40
36.0
 49
12.0
 74
0
 49
-3.0
 74
0
 49
12.0
 74
0
 49
-3.0
 74
0
 49
0.0
 74
0
 49
-3.0
 74
0
 49
0.0
 74
0
 49
-3.0
 74
0
  0
LTYPE
  5
53
100
AcDbSymbolTableRecord
100
AcDbLinetypeTableRecord
  2
ACAD_ISO02W100
 70
0
  3
ISO dash __ __ __ __ __ __ __ __ __ __ __ __ __
 72
65
 73
2
 40
15.0
 49
12.0
 74
0
 49
-3.0
 74
0
  0
LTYPE
  5
54
100
AcDbSymbolTableRecord
100
AcDbLinetypeTableRecord
  2
BORDERX2
 70
0
  3
Border (2x) ____  ____  .  ____  ____  .  ___
 72
65
 73
6
 40
88.8999999999999915
 49
25.3999999999999986
 74
0
 49
-12.6999999999999993
 74
0
 49
25.3999999999999986
 74
0
 49
-12.6999999999999993
 74
0
 49
0.0
 74
0
 49
-12.6999999999999993
 74
0
  0
LTYPE
  5
55
100
AcDbSymbolTableRecord
100
AcDbLinetypeTableRecord
  2
ACAD_ISO14W100
 70
0
  3
ISO dash triple-dot __ . . . __ . . . __ . . . _
 72
65
 73
8
 40
24.0
 49
12.0
 74
0
 49
-3.0
 74
0
 49
0.0
 74
0
 49
-3.0
 74
0
 49
0.0
 74
0
 49
-3.0
 74
0
 49
0.0
 74
0
 49
-3.0
 74
0
  0
LTYPE
  5
56
100
AcDbSymbolTableRecord
100
AcDbLinetypeTableRecord
  2
DASHED2
 70
0
  3
Dashed (.5x) _ _ _ _ _ _ _ _ _ _ _ _ _ _ _ _ _ 
 72
65
 73
2
 40
9.5249999999999986
 49
6.3499999999999996
 74
0
 49
-3.1749999999999998
 74
0
  0
ENDTAB
  0
TABLE
  2
LAYER
  5
2
100
AcDbSymbolTable
 70
4
  0
LAYER
  5
57
100
AcDbSymbolTableRecord
100
AcDbLayerTableRecord
  2
text
 70
0
 62
7
420
16777215
  6
Continuous
370
-3
390
F
  0
LAYER
  5
10
100
AcDbSymbolTableRecord
100
AcDbLayerTableRecord
  2
0
 70
0
 62
7
420
16777215
  6
Continuous
370
-3
390
F
  0
LAYER
  5
58
100
AcDbSymbolTableRecord
100
AcDbLayerTableRecord
  2
s001-#def-active-grp
 70
0
 62
7
420
16777215
  6
Continuous
370
-3
390
F
  0
LAYER
  5
59
100
AcDbSymbolTableRecord
100
AcDbLayerTableRecord
  2
dimensions
 70
0
 62
7
420
16777215
  6
Continuous
370
-3
390
F
  0
ENDTAB
  0
TABLE
  2
STYLE
  5
3
100
AcDbSymbolTable
 70
1
  0
STYLE
  5
5A
100
AcDbSymbolTableRecord
100
AcDbTextStyleTableRecord
  2
Standard
 70
0
 40
0.0
 41
1.0
 50
0.0
 71
0
 42
2.5
  3

  4

1001
ACAD
1000
txt
1071
0
  0
ENDTAB
  0
TABLE
  2
VIEW
  5
6
100
AcDbSymbolTable
 70
0
  0
ENDTAB
  0
TABLE
  2
UCS
  5
7
100
AcDbSymbolTable
 70
0
  0
ENDTAB
  0
TABLE
  2
APPID
  5
9
100
AcDbSymbolTable
 70
1
  0
APPID
  5
12
100
AcDbSymbolTableRecord
100
AcDbRegAppTableRecord
  2
ACAD
 70
0
  0
APPID
  5
5B
100
AcDbSymbolTableRecord
100
AcDbRegAppTableRecord
  2
QCAD
 70
0
  0
ENDTAB
  0
TABLE
  2
DIMSTYLE
  5
A
100
AcDbSymbolTable
 70
1
100
AcDbDimStyleTable
 71
0
  0
DIMSTYLE
105
27
100
AcDbSymbolTableRecord
100
AcDbDimStyleTableRecord
  2
Standard
 41
2.5
 42
0.625
 43
3.75
 44
1.25
 70
0
 73
0
 74
0
 77
1
 78
8
140
2.5
141
2.5
143
0.03937007874016
147
0.625
171
3
172
1
271
2
272
2
274
3
278
44
283
0
284
8
340
5A
  0
ENDTAB
  0
TABLE
  2
BLOCK_RECORD
  5
1
100
AcDbSymbolTable
 70
1
  0
BLOCK_RECORD
  5
1F
100
AcDbSymbolTableRecord
100
AcDbBlockTableRecord
  2
*Model_Space
340
22
  0
BLOCK_RECORD
  5
1B
100
AcDbSymbolTableRecord
100
AcDbBlockTableRecord
  2
*Paper_Space
340
1E
  0
BLOCK_RECORD
  5
23
100
AcDbSymbolTableRecord
100
AcDbBlockTableRecord
  2
*Paper_Space0
340
26
  0
BLOCK_RECORD
  5
5C
100
AcDbSymbolTableRecord
100
AcDbBlockTableRecord
  2
bottom
340
0
  0
ENDTAB
  0
ENDSEC
  0
SECTION
  2
BLOCKS
  0
BLOCK
  5
20
100
AcDbEntity
  8
0
100
AcDbBlockBegin
  2
*Model_Space
 70
0
 10
0.0
 20
0.0
 30
0.0
  3
*Model_Space
  1

  0
ENDBLK
  5
21
100
AcDbEntity
  8
0
100
AcDbBlockEnd
  0
BLOCK
  5
1C
100
AcDbEntity
 67
1
  8
0
100
AcDbBlockBegin
  2
*Paper_Space
 70
0
 10
0.0
 20
0.0
 30
0.0
  3
*Paper_Space
  1

  0
ENDBLK
  5
1D
100
AcDbEntity
 67
1
  8
0
100
AcDbBlockEnd
  0
BLOCK
  5
24
100
AcDbEntity
  8
0
100
AcDbBlockBegin
  2
*Paper_Space0
 70
0
 10
0.0
 20
0.0
 30
0.0
  3
*Paper_Space0
  1

  0
ENDBLK
  5
25
100
AcDbEntity
  8
0
100
AcDbBlockEnd
  0
BLOCK
  5
5D
100
AcDbEntity
  8
0
100
AcDbBlockBegin
  2
bottom
 70
0
 10
0.0
 20
0.0
 30
0.0
  3
bottom
  1

  0
LINE
  5
5E
100
AcDbEntity
  8
s001-#def-active-grp
 62
7
420
0
370
-3
 48
1.0
  6
Continuous
100
AcDbLine
 10
-165.434043827936307
 20
121.1468069132750998
 30
0.0
 11
-202.5472924819881939
 21
56.8647746105200369
 31
0.0
  0
LINE
  5
5F
100
AcDbEntity
  8
s001-#def-active-grp
 62
7
420
0
370
-3
 48
1.0
  6
Continuous
100
AcDbLine
 10
-202.5472924819881939
 20
46.8647746105200298
 30
0.0
 11
-53.0949884748331087
 21
-211.9942092381023997
 31
0.0
  0
LINE
  5
60
100
AcDbEntity
  8
s001-#def-active-grp
 62
7
420
0
370
-3
 48
1.0
  6
Continuous
100
AcDbLine
 10
-44.4347344369887196
 20
-216.9942092381023997
 30
0.0
 11
29.79176287111504
 21
-216.9942092381023997
 31
0.0
  0
LINE
  5
61
100
AcDbEntity
  8
s001-#def-active-grp
 62
7
420
0
370
-3
 48
1.0
  6
Continuous
100
AcDbLine
 10
38.452016908959429
 20
-211.9942092381023997
 30
0.0
 11
187.9043209161146137
 21
46.8647746105199872
 31
0.0
  0
LINE
  5
62
100
AcDbEntity
  8
s001-#def-active-grp
 62
7
420
0
370
-3
 48
1.0
  6
Continuous
100
AcDbLine
 10
187.9043209161146137
 20
56.8647746105199872
 30
0.0
 11
150.7910722620626984
 21
121.1468069132750998
 31
0.0
  0
LINE
  5
63
100
AcDbEntity
  8
s001-#def-active-grp
 62
7
420
0
370
-3
 48
1.0
  6
Continuous
100
AcDbLine
 10
142.1308182242183022
 20
126.1468069132750998
 30
0.0
 11
-156.7737897900919108
 21
126.1468069132750998
 31
0.0
  0
LINE
  5
64
100
AcDbEntity
  8
s001-#def-active-grp
 62
7
420
0
370
-3
 48
1.0
  6
Continuous
100
AcDbLine
 10
-9.321485782936854
 20
-181.9942092381023997
 30
0.0
 11
-9.321485782936854
 21
-176.9942092381023997
 31
0.0
  0
LINE
  5
65
100
AcDbEntity
  8
s001-#def-active-grp
 62
7
420
0
370
-3
 48
1.0
  6
Continuous
100
AcDbLine
 10
-5.321485782936854
 20
-176.9942092381023997
 30
0.0
 11
-5.321485782936854
 21
-181.9942092381023997
 31
0.0
  0
LINE
  5
66
100
AcDbEntity
  8
s001-#def-active-grp
 62
7
420
0
370
-3
 48
1.0
  6
Continuous
100
AcDbLine
 10
-152.6797790225068923
 20
73.2378415694665534
 30
0.0
 11
-148.3496520035847936
 21
70.7378415694665534
 31
0.0
  0
LINE
  5
67
100
AcDbEntity
  8
s001-#def-active-grp
 62
7
420
0
370
-3
 48
1.0
  6
Continuous
100
AcDbLine
 10
-150.3496520035847936
 20
67.2737399543288035
 30
0.0
 11
-154.6797790225068923
 21
69.7737399543287893
 31
0.0
  0
LINE
  5
68
100
AcDbEntity
  8
s001-#def-active-grp
 62
7
420
0
370
-3
 48
1.0
  6
Continuous
100
AcDbLine
 10
140.0368074566333121
 20
69.7737399543286898
 30
0.0
 11
135.7066804377110998
 21
67.273739954328704
 31
0.0
  0
LINE
  5
69
100
AcDbEntity
  8
s001-#def-active-grp
 62
7
420
0
370
-3
 48
1.0
  6
Continuous
100
AcDbLine
 10
133.7066804377110998
 20
70.737841569466454
 30
0.0
 11
138.0368074566333121
 21
73.237841569466454
 31
0.0
  0
ARC
  5
6A
100
AcDbEntity
  8
s001-#def-active-grp
 62
7
420
0
370
-3
 48
1.0
  6
Continuous
100
AcDbCircle
 10
-156.7737897900919108
 20
116.1468069132750998
 30
0.0
 40
9.9999999999999574
100
AcDbArc
 50
89.9999999999996874
 51
150.0000000000001137
  0
ARC
  5
6B
100
AcDbEntity
  8
s001-#def-active-grp
 62
7
420
0
370
-3
 48
1.0
  6
Continuous
100
AcDbCircle
 10
-193.8870384441437977
 20
51.8647746105200369
 30
0.0
 40
9.9999999999999876
100
AcDbArc
 50
149.9999999999998863
 51
-149.9999999999998863
  0
ARC
  5
6C
100
AcDbEntity
  8
s001-#def-active-grp
 62
7
420
0
370
-3
 48
1.0
  6
Continuous
100
AcDbCircle
 10
-44.4347344369887196
 20
-206.9942092381023997
 30
0.0
 40
9.9999999999999876
100
AcDbArc
 50
-150.000000000000199
 51
-90.0
  0
ARC
  5
6D
100
AcDbEntity
  8
s001-#def-active-grp
 62
7
420
0
370
-3
 48
1.0
  6
Continuous
100
AcDbCircle
 10
29.79176287111504
 20
-206.9942092381023997
 30
0.0
 40
9.9999999999999716
100
AcDbArc
 50
-90.0
 51
-29.9999999999998543
  0
ARC
  5
6E
100
AcDbEntity
  8
s001-#def-active-grp
 62
7
420
0
370
-3
 48
1.0
  6
Continuous
100
AcDbCircle
 10
179.2440668782701039
 20
51.8647746105199872
 30
0.0
 40
10.0000000000000302
100
AcDbArc
 50
-29.9999999999998899
 51
29.9999999999998899
  0
ARC
  5
6F
100
AcDbEntity
  8
s001-#def-active-grp
 62
7
420
0
370
-3
 48
1.0
  6
Continuous
100
AcDbCircle
 10
142.1308182242183875
 20
116.1468069132750998
 30
0.0
 40
9.9999999999999378
100
AcDbArc
 50
29.9999999999999218
 51
90.0000000000003126
  0
ARC
  5
70
100
AcDbEntity
  8
s001-#def-active-grp
 62
7
420
0
370
-3
 48
1.0
  6
Continuous
100
AcDbCircle
 10
-37.3214857829368469
 20
-181.9942092381023997
 30
0.0
 40
2.5
100
AcDbArc
 50
-90.0
 51
0.0
  0
ARC
  5
71
100
AcDbEntity
  8
s001-#def-active-grp
 62
7
420
0
370
-3
 48
1.0
  6
Continuous
100
AcDbCircle
 10
-37.3214857829368469
 20
-181.9942092381023997
 30
0.0
 40
2.5
100
AcDbArc
 50
180.0
 51
-90.0
  0
ARC
  5
72
100
AcDbEntity
  8
s001-#def-active-grp
 62
7
420
0
370
-3
 48
1.0
  6
Continuous
100
AcDbCircle
 10
-37.3214857829368469
 20
-181.9942092381023997
 30
0.0
 40
2.5
100
AcDbArc
 50
90.0
 51
180.0
  0
ARC
  5
73
100
AcDbEntity
  8
s001-#def-active-grp
 62
7
420
0
370
-3
 48
1.0
  6
Continuous
100
AcDbCircle
 10
-37.3214857829368469
 20
-181.9942092381023997
 30
0.0
 40
2.5
100
AcDbArc
 50
0.0
 51
90.0
  0
ARC
  5
74
100
AcDbEntity
  8
s001-#def-active-grp
 62
7
420
0
370
-3
 48
1.0
  6
Continuous
100
AcDbCircle
 10
-37.3214857829368469
 20
-201.9942092381023997
 30
0.0
 40
2.5
100
AcDbArc
 50
-90.0
 51
0.0
  0
ARC
  5
75
100
AcDbEntity
  8
s001-#def-active-grp
 62
7
420
0
370
-3
 48
1.0
  6
Continuous
100
AcDbCircle
 10
-37.3214857829368469
 20
-201.9942092381023997
 30
0.0
 40
2.5
100
AcDbArc
 50
180.0
 51
-90.0
  0
ARC
  5
76
100
AcDbEntity
  8
s001-#def-active-grp
 62
7
420
0
370
-3
 48
1.0
  6
Continuous
100
AcDbCircle
 10
-37.3214857829368469
 20
-201.9942092381023997
 30
0.0
 40
2.5
100
AcDbArc
 50
90.0
 51
180.0
  0
ARC
  5
77
100
AcDbEntity
  8
s001-#def-active-grp
 62
7
420
0
370
-3
 48
1.0
  6
Continuous
100
AcDbCircle
 10
-37.3214857829368469
 20
-201.9942092381023997
 30
0.0
 40
2.5
100
AcDbArc
 50
0.0
 51
90.0
  0
ARC
  5
78
100
AcDbEntity
  8
s001-#def-active-grp
 62
7
420
0
370
-3
 48
1.0
  6
Continuous
100
AcDbCircle
 10
-17.3214857829368505
 20
-201.9942092381023997
 30
0.0
 40
2.5
100
AcDbArc
 50
-90.0
 51
0.0
  0
ARC
  5
79
100
AcDbEntity
  8
s001-#def-active-grp
 62
7
420
0
370
-3
 48
1.0
  6
Continuous
100
AcDbCircle
 10
-17.3214857829368505
 20
-201.9942092381023997
 30
0.0
 40
2.5
100
AcDbArc
 50
180.0
 51
-90.0
  0
ARC
  5
7A
100
AcDbEntity
  8
s001-#def-active-grp
 62
7
420
0
370
-3
 48
1.0
  6
Continuous
100
AcDbCircle
 10
-17.3214857829368505
 20
-201.9942092381023997
 30
0.0
 40
2.5
100
AcDbArc
 50
90.0
 51
180.0
  0
ARC
  5
7B
100
AcDbEntity
  8
s001-#def-active-grp
 62
7
420
0
370
-3
 48
1.0
  6
Continuous
100
AcDbCircle
 10
-17.3214857829368505
 20
-201.9942092381023997
 30
0.0
 40
2.5
100
AcDbArc
 50
0.0
 51
90.0
  0
ARC
  5
7C
100
AcDbEntity
  8
s001-#def-active-grp
 62
7
420
0
370
-3
 48
1.0
  6
Continuous
100
AcDbCircle
 10
2.678514217063146
 20
-201.9942092381023997
 30
0.0
 40
2.5
100
AcDbArc
 50
-90.0
 51
0.0
  0
ARC
  5
7D
100
AcDbEntity
  8
s001-#def-active-grp
 62
7
420
0
370
-3
 48
1.0
  6
Continuous
100
AcDbCircle
 10
2.678514217063146
 20
-201.9942092381023997
 30
0.0
 40
2.5
100
AcDbArc
 50
180.0
 51
-90.0
  0
ARC
  5
7E
100
AcDbEntity
  8
s001-#def-active-grp
 62
7
420
0
370
-3
 48
1.0
  6
Continuous
100
AcDbCircle
 10
2.678514217063146
 20
-201.9942092381023997
 30
0.0
 40
2.5
100
AcDbArc
 50
90.0
 51
180.0
  0
ARC
  5
7F
100
AcDbEntity
  8
s001-#def-active-grp
 62
7
420
0
370
-3
 48
1.0
  6
Continuous
100
AcDbCircle
 10
2.678514217063146
 20
-201.9942092381023997
 30
0.0
 40
2.5
100
AcDbArc
 50
0.0
 51
90.0
  0
ARC
  5
80
100
AcDbEntity
  8
s001-#def-active-grp
 62
7
420
0
370
-3
 48
1.0
  6
Continuous
100
AcDbCircle
 10
22.6785142170631495
 20
-201.9942092381023997
 30
0.0
 40
2.5
100
AcDbArc
 50
-90.0
 51
0.0
  0
ARC
  5
81
100
AcDbEntity
  8
s001-#def-active-grp
 62
7
420
0
370
-3
 48
1.0
  6
Continuous
100
AcDbCircle
 10
22.6785142170631495
 20
-201.9942092381023997
 30
0.0
 40
2.5
100
AcDbArc
 50
180.0
 51
-90.0
  0
ARC
  5
82
100
AcDbEntity
  8
s001-#def-active-grp
 62
7
420
0
370
-3
 48
1.0
  6
Continuous
100
AcDbCircle
 10
22.6785142170631495
 20
-201.9942092381023997
 30
0.0
 40
2.5
100
AcDbArc
 50
90.0
 51
180.0
  0
ARC
  5
83
100
AcDbEntity
  8
s001-#def-active-grp
 62
7
420
0
370
-3
 48
1.0
  6
Continuous
100
AcDbCircle
 10
22.6785142170631495
 20
-201.9942092381023997
 30
0.0
 40
2.5
100
AcDbArc
 50
0.0
 51
90.0
  0
ARC
  5
84
100
AcDbEntity
  8
s001-#def-active-grp
 62
7
420
0
370
-3
 48
1.0
  6
Continuous
100
AcDbCircle
 10
22.6785142170631495
 20
-181.9942092381023997
 30
0.0
 40
2.5
100
AcDbArc
 50
-90.0
 51
0.0
  0
ARC
  5
85
100
AcDbEntity
  8
s001-#def-active-grp
 62
7
420
0
370
-3
 48
1.0
  6
Continuous
100
AcDbCircle
 10
22.6785142170631495
 20
-181.9942092381023997
 30
0.0
 40
2.5
100
AcDbArc
 50
180.0
 51
-90.0
  0
ARC
  5
86
100
AcDbEntity
  8
s001-#def-active-grp
 62
7
420
0
370
-3
 48
1.0
  6
Continuous
100
AcDbCircle
 10
22.6785142170631495
 20
-181.9942092381023997
 30
0.0
 40
2.5
100
AcDbArc
 50
90.0
 51
180.0
  0
ARC
  5
87
100
AcDbEntity
  8
s001-#def-active-grp
 62
7
420
0
370
-3
 48
1.0
  6
Continuous
100
AcDbCircle
 10
22.6785142170631495
 20
-181.9942092381023997
 30
0.0
 40
2.5
100
AcDbArc
 50
0.0
 51
90.0
  0
ARC
  5
88
100
AcDbEntity
  8
s001-#def-active-grp
 62
7
420
0
370
-3
 48
1.0
  6
Continuous
100
AcDbCircle
 10
154.0368074566333121
 20
45.5250286483644118
 30
0.0
 40
2.5
100
AcDbArc
 50
-90.0
 51
0.0
  0
ARC
  5
89
100
AcDbEntity
  8
s001-#def-active-grp
 62
7
420
0
370
-3
 48
1.0
  6
Continuous
100
AcDbCircle
 10
154.0368074566333121
 20
45.5250286483644118
 30
0.0
 40
2.5
100
AcDbArc
 50
180.0
 51
-90.0
  0
ARC
  5
8A
100
AcDbEntity
  8
s001-#def-active-grp
 62
7
420
0
370
-3
 48
1.0
  6
Continuous
100
AcDbCircle
 10
154.0368074566333121
 20
45.5250286483644118
 30
0.0
 40
2.5
100
AcDbArc
 50
90.0
 51
180.0
  0
ARC
  5
8B
100
AcDbEntity
  8
s001-#def-active-grp
 62
7
420
0
370
-3
 48
1.0
  6
Continuous
100
AcDbCircle
 10
154.0368074566333121
 20
45.5250286483644118
 30
0.0
 40
2.5
100
AcDbArc
 50
0.0
 51
90.0
  0
ARC
  5
8C
100
AcDbEntity
  8
s001-#def-active-grp
 62
7
420
0
370
-3
 48
1.0
  6
Continuous
100
AcDbCircle
 10
171.3573155323221044
 20
55.5250286483644118
 30
0.0
 40
2.5
100
AcDbArc
 50
-90.0
 51
0.0
  0
ARC
  5
8D
100
AcDbEntity
  8
s001-#def-active-grp
 62
7
420
0
370
-3
 48
1.0
  6
Continuous
100
AcDbCircle
 10
171.3573155323221044
 20
55.5250286483644118
 30
0.0
 40
2.5
100
AcDbArc
 50
180.0
 51
-90.0
  0
ARC
  5
8E
100
AcDbEntity
  8
s001-#def-active-grp
 62
7
420
0
370
-3
 48
1.0
  6
Continuous
100
AcDbCircle
 10
171.3573155323221044
 20
55.5250286483644118
 30
0.0
 40
2.5
100
AcDbArc
 50
90.0
 51
180.0
  0
ARC
  5
8F
100
AcDbEntity
  8
s001-#def-active-grp
 62
7
420
0
370
-3
 48
1.0
  6
Continuous
100
AcDbCircle
 10
171.3573155323221044
 20
55.5250286483644118
 30
0.0
 40
2.5
100
AcDbArc
 50
0.0
 51
90.0
  0
ARC
  5
90
100
AcDbEntity
  8
s001-#def-active-grp
 62
7
420
0
370
-3
 48
1.0
  6
Continuous
100
AcDbCircle
 10
161.3573155323221044
 20
72.8455367240531899
 30
0.0
 40
2.5
100
AcDbArc
 50
-90.0
 51
0.0
  0
ARC
  5
91
100
AcDbEntity
  8
s001-#def-active-grp
 62
7
420
0
370
-3
 48
1.0
  6
Continuous
100
AcDbCircle
 10
161.3573155323221044
 20
72.8455367240531899
 30
0.0
 40
2.5
100
AcDbArc
 50
180.0
 51
-90.0
  0
ARC
  5
92
100
AcDbEntity
  8
s001-#def-active-grp
 62
7
420
0
370
-3
 48
1.0
  6
Continuous
100
AcDbCircle
 10
161.3573155323221044
 20
72.8455367240531899
 30
0.0
 40
2.5
100
AcDbArc
 50
90.0
 51
180.0
  0
ARC
  5
93
100
AcDbEntity
  8
s001-#def-active-grp
 62
7
420
0
370
-3
 48
1.0
  6
Continuous
100
AcDbCircle
 10
161.3573155323221044
 20
72.8455367240531899
 30
0.0
 40
2.5
100
AcDbArc
 50
0.0
 51
90.0
  0
ARC
  5
94
100
AcDbEntity
  8
s001-#def-active-grp
 62
7
420
0
370
-3
 48
1.0
  6
Continuous
100
AcDbCircle
 10
151.3573155323221044
 20
90.1660447997419539
 30
0.0
 40
2.5
100
AcDbArc
 50
-90.0
 51
0.0
  0
ARC
  5
95
100
AcDbEntity
  8
s001-#def-active-grp
 62
7
420
0
370
-3
 48
1.0
  6
Continuous
100
AcDbCircle
 10
151.3573155323221044
 20
90.1660447997419539
 30
0.0
 40
2.5
100
AcDbArc
 50
180.0
 51
-90.0
  0
ARC
  5
96
100
AcDbEntity
  8
s001-#def-active-grp
 62
7
420
0
370
-3
 48
1.0
  6
Continuous
100
AcDbCircle
 10
151.3573155323221044
 20
90.1660447997419539
 30
0.0
 40
2.500000000000028
100
AcDbArc
 50
90.0000000000006537
 51
180.0
  0
ARC
  5
97
100
AcDbEntity
  8
s001-#def-active-grp
 62
7
420
0
370
-3
 48
1.0
  6
Continuous
100
AcDbCircle
 10
151.3573155323219908
 20
90.1660447997419539
 30
0.0
 40
2.5
100
AcDbArc
 50
0.0
 51
89.9999999999993463
  0
ARC
  5
98
100
AcDbEntity
  8
s001-#def-active-grp
 62
7
420
0
370
-3
 48
1.0
  6
Continuous
100
AcDbCircle
 10
141.3573155323221044
 20
107.4865528754307036
 30
0.0
 40
2.5
100
AcDbArc
 50
-90.0
 51
0.0
  0
ARC
  5
99
100
AcDbEntity
  8
s001-#def-active-grp
 62
7
420
0
370
-3
 48
1.0
  6
Continuous
100
AcDbCircle
 10
141.3573155323221044
 20
107.4865528754307036
 30
0.0
 40
2.5
100
AcDbArc
 50
180.0
 51
-90.0
  0
ARC
  5
9A
100
AcDbEntity
  8
s001-#def-active-grp
 62
7
420
0
370
-3
 48
1.0
  6
Continuous
100
AcDbCircle
 10
141.3573155323221044
 20
107.4865528754307036
 30
0.0
 40
2.5
100
AcDbArc
 50
90.0
 51
180.0
  0
ARC
  5
9B
100
AcDbEntity
  8
s001-#def-active-grp
 62
7
420
0
370
-3
 48
1.0
  6
Continuous
100
AcDbCircle
 10
141.3573155323221044
 20
107.4865528754307036
 30
0.0
 40
2.5
100
AcDbArc
 50
0.0
 51
90.0
  0
ARC
  5
9C
100
AcDbEntity
  8
s001-#def-active-grp
 62
7
420
0
370
-3
 48
1.0
  6
Continuous
100
AcDbCircle
 10
124.0368074566332979
 20
97.486552875430732
 30
0.0
 40
2.5
100
AcDbArc
 50
-90.0
 51
0.0
  0
ARC
  5
9D
100
AcDbEntity
  8
s001-#def-active-grp
 62
7
420
0
370
-3
 48
1.0
  6
Continuous
100
AcDbCircle
 10
124.0368074566332979
 20
97.486552875430732
 30
0.0
 40
2.5
100
AcDbArc
 50
180.0
 51
-90.0
  0
ARC
  5
9E
100
AcDbEntity
  8
s001-#def-active-grp
 62
7
420
0
370
-3
 48
1.0
  6
Continuous
100
AcDbCircle
 10
124.0368074566332979
 20
97.486552875430732
 30
0.0
 40
2.5
100
AcDbArc
 50
90.0
 51
180.0
  0
ARC
  5
9F
100
AcDbEntity
  8
s001-#def-active-grp
 62
7
420
0
370
-3
 48
1.0
  6
Continuous
100
AcDbCircle
 10
124.0368074566332979
 20
97.486552875430732
 30
0.0
 40
2.5
100
AcDbArc
 50
0.0
 51
90.0
  0
ARC
  5
A0
100
AcDbEntity
  8
s001-#def-active-grp
 62
7
420
0
370
-3
 48
1.0
  6
Continuous
100
AcDbCircle
 10
-138.6797790225068923
 20
97.4865528754308315
 30
0.0
 40
2.5
100
AcDbArc
 50
-90.0
 51
0.0
  0
ARC
  5
A1
100
AcDbEntity
  8
s001-#def-active-grp
 62
7
420
0
370
-3
 48
1.0
  6
Continuous
100
AcDbCircle
 10
-138.6797790225068923
 20
97.4865528754308315
 30
0.0
 40
2.5
100
AcDbArc
 50
180.0
 51
-90.0
  0
ARC
  5
A2
100
AcDbEntity
  8
s001-#def-active-grp
 62
7
420
0
370
-3
 48
1.0
  6
Continuous
100
AcDbCircle
 10
-138.6797790225068923
 20
97.4865528754308315
 30
0.0
 40
2.5
100
AcDbArc
 50
90.0
 51
180.0
  0
ARC
  5
A3
100
AcDbEntity
  8
s001-#def-active-grp
 62
7
420
0
370
-3
 48
1.0
  6
Continuous
100
AcDbCircle
 10
-138.6797790225068923
 20
97.4865528754308315
 30
0.0
 40
2.5
100
AcDbArc
 50
0.0
 51
90.0
  0
ARC
  5
A4
100
AcDbEntity
  8
s001-#def-active-grp
 62
7
420
0
370
-3
 48
1.0
  6
Continuous
100
AcDbCircle
 10
-156.000287098195713
 20
107.4865528754308031
 30
0.0
 40
2.5
100
AcDbArc
 50
-90.0
 51
0.0
  0
ARC
  5
A5
100
AcDbEntity
  8
s001-#def-active-grp
 62
7
420
0
370
-3
 48
1.0
  6
Continuous
100
AcDbCircle
 10
-156.000287098195713
 20
107.4865528754308031
 30
0.0
 40
2.5
100
AcDbArc
 50
180.0
 51
-90.0
  0
ARC
  5
A6
100
AcDbEntity
  8
s001-#def-active-grp
 62
7
420
0
370
-3
 48
1.0
  6
Continuous
100
AcDbCircle
 10
-156.000287098195713
 20
107.4865528754308031
 30
0.0
 40
2.5
100
AcDbArc
 50
90.0
 51
180.0
  0
ARC
  5
A7
100
AcDbEntity
  8
s001-#def-active-grp
 62
7
420
0
370
-3
 48
1.0
  6
Continuous
100
AcDbCircle
 10
-156.000287098195713
 20
107.4865528754308031
 30
0.0
 40
2.5
100
AcDbArc
 50
0.0
 51
90.0
  0
ARC
  5
A8
100
AcDbEntity
  8
s001-#def-active-grp
 62
7
420
0
370
-3
 48
1.0
  6
Continuous
100
AcDbCircle
 10
-166.000287098195713
 20
90.1660447997420533
 30
0.0
 40
2.5
100
AcDbArc
 50
-90.0
 51
0.0
  0
ARC
  5
A9
100
AcDbEntity
  8
s001-#def-active-grp
 62
7
420
0
370
-3
 48
1.0
  6
Continuous
100
AcDbCircle
 10
-166.000287098195713
 20
90.1660447997420533
 30
0.0
 40
2.5
100
AcDbArc
 50
180.0
 51
-90.0
  0
ARC
  5
AA
100
AcDbEntity
  8
s001-#def-active-grp
 62
7
420
0
370
-3
 48
1.0
  6
Continuous
100
AcDbCircle
 10
-166.000287098195713
 20
90.1660447997420533
 30
0.0
 40
2.5
100
AcDbArc
 50
90.0
 51
180.0
  0
ARC
  5
AB
100
AcDbEntity
  8
s001-#def-active-grp
 62
7
420
0
370
-3
 48
1.0
  6
Continuous
100
AcDbCircle
 10
-166.000287098195713
 20
90.1660447997420533
 30
0.0
 40
2.5
100
AcDbArc
 50
0.0
 51
90.0
  0
ARC
  5
AC
100
AcDbEntity
  8
s001-#def-active-grp
 62
7
420
0
370
-3
 48
1.0
  6
Continuous
100
AcDbCircle
 10
-176.000287098195713
 20
72.8455367240532894
 30
0.0
 40
2.5
100
AcDbArc
 50
-90.0
 51
0.0
  0
ARC
  5
AD
100
AcDbEntity
  8
s001-#def-active-grp
 62
7
420
0
370
-3
 48
1.0
  6
Continuous
100
AcDbCircle
 10
-176.000287098195713
 20
72.8455367240532894
 30
0.0
 40
2.5
100
AcDbArc
 50
180.0
 51
-90.0
  0
ARC
  5
AE
100
AcDbEntity
  8
s001-#def-active-grp
 62
7
420
0
370
-3
 48
1.0
  6
Continuous
100
AcDbCircle
 10
-176.000287098195713
 20
72.8455367240532894
 30
0.0
 40
2.5
100
AcDbArc
 50
90.0
 51
180.0
  0
ARC
  5
AF
100
AcDbEntity
  8
s001-#def-active-grp
 62
7
420
0
370
-3
 48
1.0
  6
Continuous
100
AcDbCircle
 10
-176.000287098195713
 20
72.8455367240532894
 30
0.0
 40
2.5
100
AcDbArc
 50
0.0
 51
90.0
  0
ARC
  5
B0
100
AcDbEntity
  8
s001-#def-active-grp
 62
7
420
0
370
-3
 48
1.0
  6
Continuous
100
AcDbCircle
 10
-186.000287098195713
 20
55.5250286483645112
 30
0.0
 40
2.5
100
AcDbArc
 50
-90.0
 51
0.0
  0
ARC
  5
B1
100
AcDbEntity
  8
s001-#def-active-grp
 62
7
420
0
370
-3
 48
1.0
  6
Continuous
100
AcDbCircle
 10
-186.000287098195713
 20
55.5250286483645112
 30
0.0
 40
2.5
100
AcDbArc
 50
180.0
 51
-90.0
  0
ARC
  5
B2
100
AcDbEntity
  8
s001-#def-active-grp
 62
7
420
0
370
-3
 48
1.0
  6
Continuous
100
AcDbCircle
 10
-186.000287098195713
 20
55.5250286483645112
 30
0.0
 40
2.5
100
AcDbArc
 50
90.0
 51
180.0
  0
ARC
  5
B3
100
AcDbEntity
  8
s001-#def-active-grp
 62
7
420
0
370
-3
 48
1.0
  6
Continuous
100
AcDbCircle
 10
-186.000287098195713
 20
55.5250286483645112
 30
0.0
 40
2.5
100
AcDbArc
 50
0.0
 51
90.0
  0
ARC
  5
B4
100
AcDbEntity
  8
s001-#def-active-grp
 62
7
420
0
370
-3
 48
1.0
  6
Continuous
100
AcDbCircle
 10
-168.6797790225068923
 20
45.5250286483645112
 30
0.0
 40
2.5
100
AcDbArc
 50
-90.0
 51
0.0
  0
ARC
  5
B5
100
AcDbEntity
  8
s001-#def-active-grp
 62
7
420
0
370
-3
 48
1.0
  6
Continuous
100
AcDbCircle
 10
-168.6797790225068923
 20
45.5250286483645112
 30
0.0
 40
2.5
100
AcDbArc
 50
180.0
 51
-90.0
  0
ARC
  5
B6
100
AcDbEntity
  8
s001-#def-active-grp
 62
7
420
0
370
-3
 48
1.0
  6
Continuous
100
AcDbCircle
 10
-168.6797790225068923
 20
45.5250286483645112
 30
0.0
 40
2.5
100
AcDbArc
 50
90.0
 51
180.0
  0
ARC
  5
B7
100
AcDbEntity
  8
s001-#def-active-grp
 62
7
420
0
370
-3
 48
1.0
  6
Continuous
100
AcDbCircle
 10
-168.6797790225068923
 20
45.5250286483645112
 30
0.0
 40
2.5
100
AcDbArc
 50
0.0
 51
90.0
  0
ARC
  5
B8
100
AcDbEntity
  8
s001-#def-active-grp
 62
7
420
0
370
-3
 48
1.0
  6
Continuous
100
AcDbCircle
 10
-7.321485782936854
 20
-181.9942092381023997
 30
0.0
 40
2.0
100
AcDbArc
 50
-90.0
 51
0.0
  0
ARC
  5
B9
100
AcDbEntity
  8
s001-#def-active-grp
 62
7
420
0
370
-3
 48
1.0
  6
Continuous
100
AcDbCircle
 10
-7.321485782936854
 20
-181.9942092381023997
 30
0.0
 40
2.0
100
AcDbArc
 50
180.0
 51
-90.0
  0
ARC
  5
BA
100
AcDbEntity
  8
s001-#def-active-grp
 62
7
420
0
370
-3
 48
1.0
  6
Continuous
100
AcDbCircle
 10
-7.321485782936854
 20
-176.9942092381023997
 30
0.0
 40
2.0
100
AcDbArc
 50
90.0
 51
180.0
  0
ARC
  5
BB
100
AcDbEntity
  8
s001-#def-active-grp
 62
7
420
0
370
-3
 48
1.0
  6
Continuous
100
AcDbCircle
 10
-7.321485782936854
 20
-176.9942092381023997
 30
0.0
 40
2.0
100
AcDbArc
 50
0.0
 51
90.0
  0
ARC
  5
BC
100
AcDbEntity
  8
s001-#def-active-grp
 62
7
420
0
370
-3
 48
1.0
  6
Continuous
100
AcDbCircle
 10
-153.6797790225068923
 20
71.5057907618976571
 30
0.0
 40
1.999999999999992
100
AcDbArc
 50
149.9999999999998863
 51
-120.0000000000000995
  0
ARC
  5
BD
100
AcDbEntity
  8
s001-#def-active-grp
 62
7
420
0
370
-3
 48
1.0
  6
Continuous
100
AcDbCircle
 10
-153.6797790225070059
 20
71.5057907618976856
 30
0.0
 40
1.9999999999999849
100
AcDbArc
 50
59.9999999999991473
 51
150.000000000000199
  0
ARC
  5
BE
100
AcDbEntity
  8
s001-#def-active-grp
 62
7
420
0
370
-3
 48
1.0
  6
Continuous
100
AcDbCircle
 10
-149.3496520035847936
 20
69.0057907618976714
 30
0.0
 40
1.999999999999992
100
AcDbArc
 50
-30.0000000000001386
 51
59.9999999999998579
  0
ARC
  5
BF
100
AcDbEntity
  8
s001-#def-active-grp
 62
7
420
0
370
-3
 48
1.0
  6
Continuous
100
AcDbCircle
 10
-149.3496520035847936
 20
69.0057907618976714
 30
0.0
 40
1.999999999999992
100
AcDbArc
 50
-120.0000000000000995
 51
-30.0000000000001386
  0
ARC
  5
C0
100
AcDbEntity
  8
s001-#def-active-grp
 62
7
420
0
370
-3
 48
1.0
  6
Continuous
100
AcDbCircle
 10
134.7066804377110998
 20
69.0057907618975577
 30
0.0
 40
1.9999999999999649
100
AcDbArc
 50
-150.0000000000009663
 51
-60.0000000000003695
  0
ARC
  5
C1
100
AcDbEntity
  8
s001-#def-active-grp
 62
7
420
0
370
-3
 48
1.0
  6
Continuous
100
AcDbCircle
 10
134.7066804377110998
 20
69.0057907618975577
 30
0.0
 40
2.0000000000000022
100
AcDbArc
 50
119.9999999999996874
 51
-150.0000000000009663
  0
ARC
  5
C2
100
AcDbEntity
  8
s001-#def-active-grp
 62
7
420
0
370
-3
 48
1.0
  6
Continuous
100
AcDbCircle
 10
139.0368074566333121
 20
71.5057907618975719
 30
0.0
 40
2.000000000000004
100
AcDbArc
 50
29.99999999999973
 51
119.9999999999998863
  0
ARC
  5
C3
100
AcDbEntity
  8
s001-#def-active-grp
 62
7
420
0
370
-3
 48
1.0
  6
Continuous
100
AcDbCircle
 10
139.0368074566333121
 20
71.5057907618975719
 30
0.0
 40
2.000000000000016
100
AcDbArc
 50
-60.0000000000000782
 51
29.99999999999973
  0
ARC
  5
C4
100
AcDbEntity
  8
s001-#def-active-grp
 62
7
420
0
370
-3
 48
1.0
  6
Continuous
100
AcDbCircle
 10
-7.3214857829368549
 20
-144.9942092381023997
 30
0.0
 40
2.5000000000000009
100
AcDbArc
 50
-90.0
 51
0.0
  0
ARC
  5
C5
100
AcDbEntity
  8
s001-#def-active-grp
 62
7
420
0
370
-3
 48
1.0
  6
Continuous
100
AcDbCircle
 10
-7.3214857829368549
 20
-144.9942092381023997
 30
0.0
 40
2.5
100
AcDbArc
 50
180.0
 51
-90.0
  0
ARC
  5
C6
100
AcDbEntity
  8
s001-#def-active-grp
 62
7
420
0
370
-3
 48
1.0
  6
Continuous
100
AcDbCircle
 10
-7.321485782936854
 20
-144.9942092381023997
 30
0.0
 40
2.5
100
AcDbArc
 50
90.0
 51
180.0
  0
ARC
  5
C7
100
AcDbEntity
  8
s001-#def-active-grp
 62
7
420
0
370
-3
 48
1.0
  6
Continuous
100
AcDbCircle
 10
-7.321485782936854
 20
-144.9942092381023997
 30
0.0
 40
2.5
100
AcDbArc
 50
0.0
 51
90.0
  0
ARC
  5
C8
100
AcDbEntity
  8
s001-#def-active-grp
 62
7
420
0
370
-3
 48
1.0
  6
Continuous
100
AcDbCircle
 10
-121.6368390824826946
 20
53.0057907618976429
 30
0.0
 40
2.5
100
AcDbArc
 50
-90.0
 51
0.0000000000003257
  0
ARC
  5
C9
100
AcDbEntity
  8
s001-#def-active-grp
 62
7
420
0
370
-3
 48
1.0
  6
Continuous
100
AcDbCircle
 10
-121.6368390824826946
 20
53.0057907618976714
 30
0.0
 40
2.5000000000000142
100
AcDbArc
 50
-179.9999999999996589
 51
-90.0
  0
ARC
  5
CA
100
AcDbEntity
  8
s001-#def-active-grp
 62
7
420
0
370
-3
 48
1.0
  6
Continuous
100
AcDbCircle
 10
-121.6368390824826946
 20
53.0057907618976429
 30
0.0
 40
2.5
100
AcDbArc
 50
90.0
 51
179.9999999999996589
  0
ARC
  5
CB
100
AcDbEntity
  8
s001-#def-active-grp
 62
7
420
0
370
-3
 48
1.0
  6
Continuous
100
AcDbCircle
 10
-121.6368390824826946
 20
53.0057907618976714
 30
0.0
 40
2.4999999999999858
100
AcDbArc
 50
-0.0000000000003257
 51
90.0
  0
ARC
  5
CC
100
AcDbEntity
  8
s001-#def-active-grp
 62
7
420
0
370
-3
 48
1.0
  6
Continuous
100
AcDbCircle
 10
106.9938675166091002
 20
53.0057907618975932
 30
0.0
 40
2.5
100
AcDbArc
 50
-90.0
 51
0.0
  0
ARC
  5
CD
100
AcDbEntity
  8
s001-#def-active-grp
 62
7
420
0
370
-3
 48
1.0
  6
Continuous
100
AcDbCircle
 10
106.9938675166091002
 20
53.0057907618975932
 30
0.0
 40
2.5
100
AcDbArc
 50
180.0
 51
-90.0
  0
ARC
  5
CE
100
AcDbEntity
  8
s001-#def-active-grp
 62
7
420
0
370
-3
 48
1.0
  6
Continuous
100
AcDbCircle
 10
106.9938675166091002
 20
53.0057907618975932
 30
0.0
 40
2.5
100
AcDbArc
 50
90.0
 51
180.0
  0
ARC
  5
CF
100
AcDbEntity
  8
s001-#def-active-grp
 62
7
420
0
370
-3
 48
1.0
  6
Continuous
100
AcDbCircle
 10
106.9938675166091002
 20
53.0057907618975932
 30
0.0
 40
2.5
100
AcDbArc
 50
0.0
 51
90.0
  0
ENDBLK
  5
D0
100
AcDbEntity
  8
0
100
AcDbBlockEnd
  0
ENDSEC
  0
SECTION
  2
ENTITIES
  0
INSERT
  5
D1
100
AcDbEntity
  8
0
 62
256
370
-1
 48
1.0
  6
ByLayer
100
AcDbBlockReference
  2
bottom
 10
0.0
 20
0.0
 30
0.0
  0
ENDSEC
  0
SECTION
  2
OBJECTS
  0
DICTIONARY
  5
C
100
AcDbDictionary
280
0
281
1
  3
ACAD_GROUP
350
D
  3
ACAD_LAYOUT
350
1A
  3
ACAD_MLINESTYLE
350
17
  3
ACAD_PLOTSETTINGS
350
19
  3
ACAD_PLOTSTYLENAME
350
E
  3
AcDbVariableDictionary
350
D2
  3
QCAD_OBJECTS
350
D3
  0
DICTIONARY
  5
D
100
AcDbDictionary
280
0
281
1
  0
ACDBDICTIONARYWDFLT
  5
E
100
AcDbDictionary
281
1
  3
Normal
350
F
100
AcDbDictionaryWithDefault
340
F
  0
ACDBPLACEHOLDER
  5
F
  0
DICTIONARY
  5
17
100
AcDbDictionary
280
0
281
1
  3
Standard
350
18
  0
MLINESTYLE
  5
18
100
AcDbMlineStyle
  2
STANDARD
 70
0
  3

 62
256
 51
90.0
 52
90.0
 71
2
 49
0.5
 62
256
  6
BYLAYER
 49
-0.5
 62
256
  6
BYLAYER
  0
DICTIONARY
  5
19
100
AcDbDictionary
280
0
281
1
  0
DICTIONARY
  5
1A
100
AcDbDictionary
281
1
  3
Layout1
350
1E
  3
Layout2
350
26
  3
Model
350
22
  0
LAYOUT
  5
1E
100
AcDbPlotSettings
  1

  2
none_device
  4

  6

 40
0.0
 41
0.0
 42
0.0
 43
0.0
 44
0.0
 45
0.0
 46
0.0
 47
0.0
 48
0.0
 49
0.0
140
0.0
141
0.0
142
1.0
143
1.0
 70
688
 72
0
 73
0
 74
5
  7

 75
16
147
1.0
148
0.0
149
0.0
100
AcDbLayout
  1
Layout1
 70
1
 71
1
 10
0.0
 20
0.0
 11
420.0
 21
297.0
 12
0.0
 22
0.0
 32
0.0
 14
100000000000000000000.0
 24
100000000000000000000.0
 34
100000000000000000000.0
 15
-100000000000000000000.0
 25
-100000000000000000000.0
 35
-100000000000000000000.0
146
0.0
 13
0.0
 23
0.0
 33
0.0
 16
1.0
 26
0.0
 36
0.0
 17
0.0
 27
1.0
 37
0.0
 76
0
330
1B
  0
LAYOUT
  5
22
100
AcDbPlotSettings
  1

  2
none_device
  4

  6

 40
0.0
 41
0.0
 42
0.0
 43
0.0
 44
0.0
 45
0.0
 46
0.0
 47
0.0
 48
0.0
 49
0.0
140
0.0
141
0.0
142
1.0
143
1.0
 70
1712
 72
0
 73
0
 74
0
  7

 75
0
147
1.0
148
0.0
149
0.0
100
AcDbLayout
  1
Model
 70
1
 71
0
 10
0.0
 20
0.0
 11
12.0
 21
9.0
 12
0.0
 22
0.0
 32
0.0
 14
0.0
 24
0.0
 34
0.0
 15
0.0
 25
0.0
 35
0.0
146
0.0
 13
0.0
 23
0.0
 33
0.0
 16
1.0
 26
0.0
 36
0.0
 17
0.0
 27
1.0
 37
0.0
 76
0
330
1F
  0
LAYOUT
  5
26
100
AcDbPlotSettings
  1

  2
none_device
  4

  6

 40
0.0
 41
0.0
 42
0.0
 43
0.0
 44
0.0
 45
0.0
 46
0.0
 47
0.0
 48
0.0
 49
0.0
140
0.0
141
0.0
142
1.0
143
1.0
 70
688
 72
0
 73
0
 74
5
  7

 75
16
147
1.0
148
0.0
149
0.0
100
AcDbLayout
  1
Layout2
 70
1
 71
2
 10
0.0
 20
0.0
 11
12.0
 21
9.0
 12
0.0
 22
0.0
 32
0.0
 14
0.0
 24
0.0
 34
0.0
 15
0.0
 25
0.0
 35
0.0
146
0.0
 13
0.0
 23
0.0
 33
0.0
 16
1.0
 26
0.0
 36
0.0
 17
0.0
 27
1.0
 37
0.0
 76
0
330
23
  0
DICTIONARY
  5
D2
100
AcDbDictionary
281
1
  3
DIMASSOC
350
D5
  3
HIDETEXT
350
D4
  0
DICTIONARYVAR
  5
D4
100
DictionaryVariables
280
0
  1
2
  0
DICTIONARYVAR
  5
D5
100
DictionaryVariables
280
0
  1
1
  0
DICTIONARY
  5
D3
100
AcDbDictionary
281
1
  3
ColorSettings/BackgroundColor
350
D6
  3
ColorSettings/ColorMode
350
D7
  3
Grid/DisplayGrid00
350
D8
  3
Grid/DisplayGrid01
350
D9
  3
Grid/DisplayGrid02
350
DA
  3
Grid/DisplayGrid03
350
DB
  3
Grid/GridSpacingX00
350
DC
  3
Grid/GridSpacingX01
350
DD
  3
Grid/GridSpacingX02
350
DE
  3
Grid/GridSpacingX03
350
DF
  3
Grid/GridSpacingY00
350
E0
  3
Grid/GridSpacingY01
350
E1
  3
Grid/GridSpacingY02
350
E2
  3
Grid/GridSpacingY03
350
E3
  3
Grid/IsometricGrid00
350
E4
  3
Grid/IsometricGrid01
350
E5
  3
Grid/IsometricGrid02
350
E6
  3
Grid/IsometricGrid03
350
E7
  3
Grid/IsometricProjection00
350
E8
  3
Grid/IsometricProjection01
350
E9
  3
Grid/IsometricProjection02
350
EA
  3
Grid/IsometricProjection03
350
EB
  3
Grid/MetaGridSpacingX00
350
EC
  3
Grid/MetaGridSpacingX01
350
ED
  3
Grid/MetaGridSpacingX02
350
EE
  3
Grid/MetaGridSpacingX03
350
EF
  3
Grid/MetaGridSpacingY00
350
F0
  3
Grid/MetaGridSpacingY01
350
F1
  3
Grid/MetaGridSpacingY02
350
F2
  3
Grid/MetaGridSpacingY03
350
F3
  3
MultiPageSettings/Columns
350
F4
  3
MultiPageSettings/GlueMarginsBottom
350
F5
  3
MultiPageSettings/GlueMarginsLeft
350
F6
  3
MultiPageSettings/GlueMarginsRight
350
F7
  3
MultiPageSettings/GlueMarginsTop
350
F8
  3
MultiPageSettings/PrintCropMarks
350
F9
  3
MultiPageSettings/Rows
350
FA
  3
PageSettings/OffsetX
350
FB
  3
PageSettings/OffsetY
350
FC
  3
PageSettings/PageOrientation
350
FD
  3
PageSettings/PaperHeight
350
FE
  3
PageSettings/PaperWidth
350
FF
  3
PageSettings/Scale
350
100
  3
PageSettings/ShowPaperBorders
350
101
  3
PageTagSettings/EnablePageTags
350
102
  3
PageTagSettings/TagAlignment
350
103
  3
PageTagSettings/TagFont
350
104
  3
PageTagSettings/TagPosition
350
105
  3
UnitSettings/PaperUnit
350
106
  3
ViewportCenter
350
107
  3
ViewportHeight
350
108
  3
ViewportWidth
350
109
  0
XRECORD
  5
D6
330
D3
100
AcDbXrecord
280
1
1000
\U+0411\U+0435\U+043b\U+044b\U+0439
  0
XRECORD
  5
D7
330
D3
100
AcDbXrecord
280
1
1000
FullColor
  0
XRECORD
  5
D8
330
D3
100
AcDbXrecord
280
1
290
1
  0
XRECORD
  5
D9
330
D3
100
AcDbXrecord
280
1
290
1
  0
XRECORD
  5
DA
330
D3
100
AcDbXrecord
280
1
290
1
  0
XRECORD
  5
DB
330
D3
100
AcDbXrecord
280
1
290
1
  0
XRECORD
  5
DC
330
D3
100
AcDbXrecord
280
1
1000
auto
  0
XRECORD
  5
DD
330
D3
100
AcDbXrecord
280
1
1000
auto
  0
XRECORD
  5
DE
330
D3
100
AcDbXrecord
280
1
1000
auto
  0
XRECORD
  5
DF
330
D3
100
AcDbXrecord
280
1
1000
auto
  0
XRECORD
  5
E0
330
D3
100
AcDbXrecord
280
1
1000
auto
  0
XRECORD
  5
E1
330
D3
100
AcDbXrecord
280
1
1000
auto
  0
XRECORD
  5
E2
330
D3
100
AcDbXrecord
280
1
1000
auto
  0
XRECORD
  5
E3
330
D3
100
AcDbXrecord
280
1
1000
auto
  0
XRECORD
  5
E4
330
D3
100
AcDbXrecord
280
1
290
0
  0
XRECORD
  5
E5
330
D3
100
AcDbXrecord
280
1
290
0
  0
XRECORD
  5
E6
330
D3
100
AcDbXrecord
280
1
290
0
  0
XRECORD
  5
E7
330
D3
100
AcDbXrecord
280
1
290
0
  0
XRECORD
  5
E8
330
D3
100
AcDbXrecord
280
1
 90
65537
  0
XRECORD
  5
E9
330
D3
100
AcDbXrecord
280
1
 90
65537
  0
XRECORD
  5
EA
330
D3
100
AcDbXrecord
280
1
 90
65537
  0
XRECORD
  5
EB
330
D3
100
AcDbXrecord
280
1
 90
65537
  0
XRECORD
  5
EC
330
D3
100
AcDbXrecord
280
1
1000
auto
  0
XRECORD
  5
ED
330
D3
100
AcDbXrecord
280
1
1000
auto
  0
XRECORD
  5
EE
330
D3
100
AcDbXrecord
280
1
1000
auto
  0
XRECORD
  5
EF
330
D3
100
AcDbXrecord
280
1
1000
auto
  0
XRECORD
  5
F0
330
D3
100
AcDbXrecord
280
1
1000
auto
  0
XRECORD
  5
F1
330
D3
100
AcDbXrecord
280
1
1000
auto
  0
XRECORD
  5
F2
330
D3
100
AcDbXrecord
280
1
1000
auto
  0
XRECORD
  5
F3
330
D3
100
AcDbXrecord
280
1
1000
auto
  0
XRECORD
  5
F4
330
D3
100
AcDbXrecord
280
1
 90
1
  0
XRECORD
  5
F5
330
D3
100
AcDbXrecord
280
1
 40
10.0
  0
XRECORD
  5
F6
330
D3
100
AcDbXrecord
280
1
 40
10.0
  0
XRECORD
  5
F7
330
D3
100
AcDbXrecord
280
1
 40
10.0
  0
XRECORD
  5
F8
330
D3
100
AcDbXrecord
280
1
 40
10.0
  0
XRECORD
  5
F9
330
D3
100
AcDbXrecord
280
1
290
0
  0
XRECORD
  5
FA
330
D3
100
AcDbXrecord
280
1
 90
1
  0
XRECORD
  5
FB
330
D3
100
AcDbXrecord
280
1
 40
0.0
  0
XRECORD
  5
FC
330
D3
100
AcDbXrecord
280
1
 40
0.0
  0
XRECORD
  5
FD
330
D3
100
AcDbXrecord
280
1
1000
Portrait
  0
XRECORD
  5
FE
330
D3
100
AcDbXrecord
280
1
 40
297.0
  0
XRECORD
  5
FF
330
D3
100
AcDbXrecord
280
1
 40
210.0
  0
XRECORD
  5
100
330
D3
100
AcDbXrecord
280
1
1000
1:1
  0
XRECORD
  5
101
330
D3
100
AcDbXrecord
280
1
290
1
  0
XRECORD
  5
102
330
D3
100
AcDbXrecord
280
1
290
0
  0
XRECORD
  5
103
330
D3
100
AcDbXrecord
280
1
1000
Inside
  0
XRECORD
  5
104
330
D3
100
AcDbXrecord
280
1
1000
Arial,10,-1,5,50,0,0,0,0,0
  0
XRECORD
  5
105
330
D3
100
AcDbXrecord
280
1
1000
TopLeft
  0
XRECORD
  5
106
330
D3
100
AcDbXrecord
280
1
 90
4
  0
XRECORD
  5
108
330
D3
100
AcDbXrecord
280
1
 40
524.1880505383816171
  0
XRECORD
  5
109
330
D3
100
AcDbXrecord
280
1
 40
828.1241374913456639
  0
ENDSEC
  0
EOF
